<?xml version="1.0" standalone="no"?>
<!DOCTYPE svg PUBLIC "-//W3C//DTD SVG 20010904//EN"
 "http://www.w3.org/TR/2001/REC-SVG-20010904/DTD/svg10.dtd">
<svg version="1.0" xmlns="http://www.w3.org/2000/svg"
 width="960.000000pt" height="1280.000000pt" viewBox="0 0 960.000000 1280.000000"
 preserveAspectRatio="xMidYMid meet">

<g transform="translate(0.000000,1280.000000) scale(0.100000,-0.100000)"
fill="#000000" stroke="none">
<path d="M379 12743 c-3 -99 -7 -165 -13 -189 -8 -31 4 -83 18 -78 6 2 20 -2
30 -9 14 -11 17 -21 12 -42 -6 -22 -11 -26 -32 -22 -34 6 -44 -17 -44 -96 0
-35 -5 -89 -10 -118 -6 -30 -13 -115 -16 -190 l-5 -136 31 -13 c38 -16 37 -44
-2 -48 -25 -3 -27 -7 -37 -85 -18 -140 -21 -335 -5 -352 19 -19 18 -45 -3 -60
-15 -11 -18 -36 -21 -175 -3 -155 -2 -163 17 -177 26 -18 27 -35 2 -57 -28
-25 -29 -164 -2 -197 l18 -23 14 22 c8 12 19 22 26 22 7 0 13 9 13 20 0 11 11
27 25 36 14 9 23 19 21 22 -3 2 2 21 10 41 8 20 18 70 21 113 5 63 3 79 -11
93 -30 30 -14 95 32 132 13 11 13 14 -1 28 -16 15 -14 37 5 61 11 15 19 50 19
93 1 41 26 80 52 81 9 0 17 4 17 8 0 5 18 14 41 21 22 7 43 19 46 27 9 24 29
16 46 -21 9 -19 22 -35 28 -35 6 0 17 -7 25 -15 9 -8 24 -15 33 -15 10 0 24 7
31 15 7 8 23 15 35 15 13 0 37 6 54 13 45 19 95 10 136 -27 31 -26 37 -38 38
-71 0 -22 4 -45 9 -51 15 -20 -3 -46 -28 -41 -30 5 -49 -8 -73 -53 -13 -24
-25 -34 -37 -32 -28 5 -53 37 -48 58 3 13 -3 23 -23 32 -32 15 -73 16 -73 2 0
-5 -8 -19 -17 -29 -33 -36 -40 -47 -46 -73 -4 -15 -14 -34 -23 -42 -23 -24
-36 -76 -19 -76 16 0 30 -18 21 -27 -3 -3 -12 0 -21 7 -12 10 -15 10 -15 -5 0
-10 17 -35 38 -56 38 -37 40 -38 95 -32 50 5 62 3 97 -21 45 -30 57 -60 41
-109 -15 -45 -54 -62 -118 -52 -27 4 -56 11 -66 16 -27 15 -63 -27 -71 -83 -8
-57 5 -67 91 -72 46 -3 61 -8 79 -29 14 -17 20 -34 17 -51 -4 -20 2 -33 27
-56 18 -16 36 -30 40 -30 19 0 40 -34 40 -63 -1 -61 -38 -81 -108 -56 -27 9
-36 7 -69 -15 -21 -14 -45 -26 -54 -26 -22 0 -29 -20 -16 -45 14 -26 19 -60
18 -117 0 -26 4 -50 10 -54 6 -4 6 -11 -2 -20 -6 -7 -11 -43 -10 -79 1 -55 -2
-66 -19 -75 -16 -8 -20 -8 -20 4 0 8 -4 16 -10 18 -12 4 -15 255 -3 287 7 18
4 36 -16 75 -16 33 -27 73 -29 113 -4 56 -2 64 22 88 23 23 34 26 76 23 28 -1
50 0 50 4 0 4 -19 20 -42 35 -35 24 -62 30 -177 45 -146 18 -226 40 -252 69
-15 17 -17 17 -51 -7 -36 -26 -36 -26 -144 -15 -156 16 -144 19 -144 -38 0
-65 27 -78 56 -26 16 28 42 30 75 6 15 -12 33 -21 38 -21 5 0 19 -12 30 -27
19 -23 20 -34 15 -92 -9 -90 -16 -101 -65 -101 -61 0 -79 -14 -79 -60 0 -46 3
-47 32 -20 12 11 30 20 39 20 10 0 21 5 24 10 5 8 11 7 21 -1 17 -14 19 -134
3 -262 -10 -80 -9 -90 7 -108 25 -27 33 -169 11 -202 -12 -19 -14 -37 -6 -98
4 -41 13 -90 19 -109 5 -19 10 -52 10 -73 0 -43 -28 -188 -38 -199 -4 -4 -20
-9 -35 -12 -16 -3 -44 -10 -64 -17 -19 -6 -48 -9 -64 -5 l-29 6 0 -110 0 -110
40 0 c29 0 40 -4 40 -15 0 -8 7 -15 16 -15 11 0 14 -5 10 -16 -3 -9 -6 -18 -6
-20 0 -13 -42 -1 -52 16 -7 11 -21 20 -30 20 -16 0 -18 -10 -18 -74 l0 -75 42
-4 43 -4 -42 -1 -43 -2 0 -40 c0 -22 5 -40 10 -40 6 0 10 -6 10 -13 0 -27 26
-67 43 -67 12 0 17 -8 17 -29 0 -16 6 -31 13 -34 7 -2 8 -8 3 -13 -5 -5 -11
-4 -13 4 -3 7 -22 12 -44 12 l-39 0 0 -210 c0 -180 2 -210 15 -210 9 0 15 9
15 25 0 20 5 25 25 25 23 0 25 4 25 40 0 41 25 105 38 97 4 -2 21 -9 38 -17
24 -10 35 -25 52 -74 24 -69 29 -93 41 -221 10 -115 -2 -314 -21 -327 -12 -8
-39 -7 -173 8 l-55 7 0 -53 c0 -50 1 -52 25 -46 34 9 192 -5 210 -18 12 -9 16
-51 21 -226 3 -118 9 -273 13 -343 3 -71 2 -135 -2 -143 -4 -8 -19 -14 -32
-14 -18 0 -25 -5 -25 -20 0 -11 -11 -27 -25 -36 -19 -13 -23 -21 -18 -45 3
-15 3 -35 -1 -44 -5 -13 -10 -12 -38 5 -32 20 -69 26 -81 14 -9 -9 4 -35 14
-28 5 3 6 -2 3 -10 -3 -8 -12 -17 -20 -20 -8 -3 -14 -13 -14 -21 0 -9 4 -14 9
-11 32 20 57 -44 29 -72 -17 -17 -25 -15 -31 8 -3 13 -10 18 -21 14 -15 -6
-16 -297 -16 -3310 l0 -3304 4288 0 4287 1 -27 24 -28 24 31 -1 c20 -1 26 -4
17 -9 -10 -6 -8 -12 7 -23 17 -13 89 -15 513 -16 462 0 492 1 492 18 0 14 2
15 10 2 6 -10 10 938 10 2686 l0 2701 -40 13 c-22 7 -38 15 -36 17 7 7 -15 63
-25 63 -15 0 -10 -50 6 -66 16 -16 21 -64 7 -64 -5 0 -17 9 -26 19 -10 11 -25
17 -37 14 -13 -4 -19 0 -19 10 0 24 33 86 46 87 5 0 20 9 32 21 13 11 38 23
57 26 l35 6 0 64 0 65 -27 -7 c-16 -3 -38 -16 -50 -27 -13 -12 -25 -20 -27
-17 -2 2 0 40 5 84 6 44 10 93 9 108 0 15 6 42 14 60 8 18 20 54 27 80 6 27
20 54 30 60 18 11 19 34 19 458 l0 447 -40 -5 c-32 -5 -40 -3 -40 10 0 9 -12
24 -26 34 -15 9 -33 32 -41 50 -7 19 -24 38 -37 43 -17 6 -25 19 -28 42 -3 18
-7 39 -9 47 -3 9 7 17 27 21 17 4 41 14 53 22 17 12 38 15 82 11 l60 -6 -3 44
-3 44 -102 10 c-56 6 -104 13 -107 16 -3 3 -1 20 5 38 13 36 78 83 119 86 14
1 35 5 47 9 14 5 23 3 23 -3 0 -6 5 -11 10 -11 6 0 10 20 10 45 0 37 -6 52
-31 80 -18 19 -43 58 -57 86 -22 48 -23 54 -8 64 9 7 16 17 16 22 0 6 18 13
40 17 43 7 51 19 22 35 -15 8 -27 2 -61 -30 -24 -21 -47 -37 -52 -33 -5 3 -8
25 -7 50 3 42 4 44 34 44 38 0 57 21 57 60 0 30 -38 80 -60 80 -21 0 -15 16
12 34 36 23 53 20 57 -11 2 -17 10 -29 21 -31 13 -3 17 4 17 31 0 31 -3 35
-29 39 -17 2 -37 0 -45 -4 -17 -10 -20 -1 -7 20 6 9 19 11 45 7 l36 -7 0 60
c0 49 -3 62 -17 66 -10 3 -25 24 -35 46 -14 33 -14 41 -2 51 7 6 22 8 31 5 12
-5 14 -9 5 -14 -18 -12 -20 -57 -2 -57 12 0 15 23 18 139 2 133 2 140 -22 170
-61 80 -64 146 -6 146 23 0 30 4 30 20 0 12 -7 20 -17 20 -10 0 -25 4 -33 10
-12 7 -10 13 13 34 15 14 27 29 27 33 0 13 -44 59 -63 66 -19 7 -15 27 6 27 6
0 24 -12 39 -27 l28 -27 0 110 c0 104 -1 110 -22 119 -13 6 -24 18 -26 28 -3
15 1 17 22 11 24 -6 26 -4 26 29 0 40 -8 48 -50 49 -45 1 -37 27 10 34 l40 7
0 284 c0 242 -2 284 -15 289 -13 5 -13 8 0 27 8 12 15 34 15 49 0 22 -6 29
-27 34 -95 21 -93 18 -93 140 0 115 1 118 83 144 l37 12 0 310 0 310 -32 -8
c-66 -14 -63 -21 -66 125 -3 164 5 178 81 146 16 -7 17 39 17 874 l0 881
-2977 0 c-1713 0 -2972 -4 -2963 -9 14 -9 63 -24 220 -71 36 -11 155 -42 265
-70 110 -28 241 -62 290 -76 50 -14 149 -42 220 -61 174 -46 501 -138 600
-168 44 -13 116 -34 160 -45 44 -12 125 -34 180 -50 55 -15 172 -47 260 -69
87 -23 169 -48 181 -56 12 -8 45 -17 72 -21 51 -6 92 -33 92 -58 0 -20 -45
-46 -78 -46 -33 0 -66 -32 -76 -72 -10 -42 -62 -90 -99 -92 -41 -1 -93 -58
-112 -124 -9 -28 -27 -65 -41 -82 -21 -25 -33 -30 -69 -30 -38 0 -47 4 -70 34
-38 50 -52 52 -75 7 -10 -21 -28 -41 -40 -44 -12 -3 -20 -13 -20 -26 0 -12 -6
-21 -14 -21 -33 0 -119 -73 -320 -272 -116 -114 -215 -208 -220 -208 -9 0
-109 -93 -155 -144 -72 -79 -469 -466 -531 -516 -136 -111 -164 -141 -162
-170 0 -3 -34 -1 -76 4 -42 5 -140 9 -217 10 -83 1 -148 6 -161 13 -24 14
-101 6 -129 -13 -27 -19 -55 -17 -111 8 -40 17 -73 22 -174 25 -205 6 -234 8
-258 17 -13 4 -43 3 -71 -5 -40 -10 -55 -9 -96 4 -31 11 -53 13 -64 7 -23 -12
-303 5 -331 20 -12 7 -81 15 -154 19 -73 4 -138 11 -144 15 -6 4 -26 -7 -43
-24 -18 -16 -40 -30 -50 -30 -25 0 -40 32 -33 68 4 19 1 34 -9 44 -15 15 -21
16 -469 50 -103 7 -167 17 -195 29 -24 10 -43 21 -43 24 0 3 9 23 20 45 11 22
20 44 20 51 0 6 6 25 14 42 8 18 29 79 47 137 17 58 38 119 45 137 8 17 14 36
14 43 0 7 6 26 14 43 8 18 20 51 26 74 6 23 15 45 20 48 6 3 10 18 10 33 0 15
6 36 14 47 7 11 16 31 18 45 3 14 15 48 26 75 27 66 54 143 81 235 13 41 29
86 36 100 7 14 15 41 18 61 3 19 14 55 25 80 11 24 23 60 26 79 3 19 17 56 31
82 14 26 25 62 25 81 0 19 8 42 20 55 11 12 23 43 27 69 3 27 14 59 25 73 10
14 22 49 28 79 6 30 19 70 30 88 11 19 28 64 37 101 9 37 29 90 43 117 15 28
30 74 33 103 l6 52 -249 0 -249 0 -3 -27 c-4 -34 -33 -41 -89 -23 -33 11 -40
10 -67 -9 -17 -11 -35 -21 -41 -21 -6 0 -11 -4 -11 -9 0 -14 -82 -29 -101 -20
-9 5 -34 31 -55 59 l-38 50 -128 0 c-115 0 -131 -2 -150 -20 -12 -11 -25 -20
-30 -20 -4 0 -12 9 -18 20 -10 19 -21 20 -235 20 l-225 0 -1 -57z m471 -116
c0 -20 -9 -25 -31 -20 -28 8 -24 33 6 33 14 0 25 -6 25 -13z m830 4 c0 -14
-28 -33 -40 -26 -20 12 -10 35 15 35 14 0 25 -4 25 -9z m-50 -172 c0 -12 -7
-19 -20 -19 -24 0 -38 29 -20 40 19 12 40 1 40 -21z m-426 -163 c-3 -16 -6
-47 -6 -69 1 -37 0 -38 -17 -23 -10 9 -27 16 -39 16 -25 0 -26 4 -11 51 6 19
12 39 14 46 2 7 18 11 35 10 28 -2 30 -4 24 -31z m-424 -190 c0 -21 -21 -31
-31 -15 -14 22 -11 29 11 29 11 0 20 -6 20 -14z m355 4 c14 -5 48 -30 74 -55
l49 -46 -18 -41 c-10 -23 -16 -46 -14 -53 15 -39 -137 -63 -175 -27 -9 9 -29
27 -44 39 -15 12 -29 35 -33 50 -4 15 -13 35 -20 43 -7 9 -10 20 -6 26 13 19
68 52 102 62 47 14 54 14 85 2z m-215 -132 c0 -23 -9 -23 -25 -1 -9 12 -9 20
-1 29 13 14 26 0 26 -28z m390 -32 c0 -3 -7 -6 -15 -6 -8 0 -15 6 -15 14 0 8
-3 23 -7 33 -4 11 2 8 15 -9 12 -14 22 -29 22 -32z m180 50 c0 -11 -19 -15
-25 -6 -3 5 1 10 9 10 9 0 16 -2 16 -4z m-738 -23 c10 -9 18 -24 18 -35 0 -10
7 -18 15 -18 8 0 15 -4 15 -8 0 -4 -9 -8 -19 -8 -11 0 -19 4 -18 9 4 20 -32
32 -63 20 -40 -15 -41 7 -2 36 33 25 31 25 54 4z m5728 -23 c0 -11 0 -23 1
-27 0 -4 -4 -9 -10 -11 -14 -5 -25 23 -17 43 8 22 26 18 26 -5z m-5836 -68
c-7 -51 -11 -50 -15 1 -3 31 0 43 8 40 7 -3 10 -19 7 -41z m100 -24 c-3 -4 1
-8 8 -8 10 0 10 -2 -1 -9 -21 -13 -5 -41 24 -41 23 0 25 -4 25 -40 0 -25 -5
-40 -12 -40 -7 0 -26 -12 -42 -26 -27 -24 -27 -26 -10 -38 10 -8 24 -12 31 -9
7 3 13 0 13 -6 0 -7 -7 -14 -15 -17 -8 -4 -15 -14 -15 -23 0 -9 -12 -27 -25
-40 -14 -13 -25 -27 -25 -32 0 -15 -50 -10 -56 6 -3 8 -23 33 -44 56 -40 44
-57 97 -34 106 11 4 11 11 1 36 -19 48 -11 73 26 83 18 4 38 7 46 7 29 -2 62
17 59 34 -5 32 10 44 32 26 10 -9 17 -20 14 -25z m701 -8 c3 -5 -1 -10 -10
-10 -9 0 -13 5 -10 10 3 6 8 10 10 10 2 0 7 -4 10 -10z m4895 -85 c0 -19 -4
-35 -9 -35 -11 0 -24 48 -16 60 13 21 25 8 25 -25z m-5194 -6 c-39 -11 -53
-25 -67 -67 -15 -46 -26 -53 -56 -39 -18 8 -23 18 -23 46 0 50 8 56 67 58 28
0 59 6 69 11 10 6 23 8 28 4 6 -3 -2 -9 -18 -13z m6374 -40 c373 -104 428
-129 353 -162 -72 -32 -183 -100 -187 -115 -8 -28 -15 -162 -21 -412 -3 -129
-10 -390 -15 -580 -6 -190 -10 -353 -10 -362 0 -26 -67 -41 -126 -28 -26 6
-70 10 -98 10 -49 -1 -122 2 -481 16 -196 7 -214 8 -245 5 -14 -2 -65 2 -115
8 -128 14 -522 32 -571 25 -30 -5 -54 -1 -89 15 -26 11 -54 21 -61 21 -8 0
-14 3 -14 8 0 14 -96 70 -147 85 -38 12 -65 13 -105 7 -77 -13 -139 -27 -173
-40 -46 -17 -145 -39 -145 -32 1 10 37 52 45 52 4 0 25 15 46 33 60 51 229
178 268 202 9 6 37 27 62 48 26 20 50 37 54 37 4 0 24 15 45 33 56 49 152 122
179 138 14 8 37 25 52 38 16 13 48 38 73 55 95 67 181 132 214 164 19 17 40
32 47 32 6 0 33 22 61 48 27 27 69 62 94 78 25 16 56 39 70 52 14 13 62 48
107 78 45 30 85 60 89 65 3 6 32 27 62 47 66 41 85 58 101 90 8 14 21 22 37
22 17 0 53 22 103 63 42 34 99 77 126 95 28 17 65 47 84 67 22 22 43 35 60 35
14 0 91 -18 171 -41z m-1109 -86 c22 -22 54 -47 71 -54 28 -12 30 -15 24 -53
-4 -23 -14 -51 -22 -63 -8 -13 -11 -23 -7 -23 7 0 -38 -31 -82 -56 -11 -7 -19
-19 -17 -27 7 -42 -43 -9 -103 67 -10 13 -23 22 -27 20 -4 -3 -8 17 -8 45 0
38 6 56 24 78 13 15 25 37 27 48 3 12 12 20 24 20 16 0 21 8 23 40 3 38 4 39
18 20 8 -11 33 -39 55 -62z m-5825 -70 c17 -39 14 -72 -6 -78 -11 -4 -20 -11
-20 -16 0 -16 -14 -9 -51 25 -29 27 -36 40 -32 60 5 24 10 26 53 26 36 0 50
-4 56 -17z m4984 -53 c0 -13 -11 -13 -30 0 -12 8 -11 10 8 10 12 0 22 -4 22
-10z m160 -501 c73 -41 60 -126 -24 -158 -67 -26 -146 17 -146 79 0 34 26 69
64 86 43 19 62 17 106 -7z m-541 -480 c39 -38 40 -78 6 -123 -14 -18 -25 -38
-25 -43 0 -6 -7 -16 -15 -23 -8 -7 -15 -21 -15 -31 0 -11 -4 -19 -10 -19 -5 0
-10 -6 -10 -14 0 -8 -7 -17 -16 -20 -13 -5 -15 -15 -11 -51 5 -35 3 -45 -8
-45 -7 0 -17 5 -20 10 -3 6 -26 10 -50 10 -64 0 -98 15 -90 40 4 11 2 20 -4
20 -17 0 -13 61 6 82 20 22 33 23 33 2 0 -14 3 -14 16 -3 30 25 48 73 46 124
-2 52 6 69 48 98 39 27 84 22 119 -14z m-4692 -81 c28 -31 46 -88 33 -103 -12
-15 -122 -28 -130 -15 -3 5 -25 10 -48 13 -50 4 -62 17 -62 69 0 49 17 57 111
58 66 0 78 -3 96 -22z m798 -61 c11 -5 23 -15 27 -21 12 -17 9 -61 -3 -73 -15
-15 -108 -5 -130 13 -8 8 -20 14 -26 14 -18 0 -42 46 -36 70 6 21 9 21 77 15
39 -4 80 -12 91 -18z m232 -18 c27 -7 59 -15 73 -19 56 -15 24 -80 -39 -80
-20 0 -49 -7 -65 -15 -45 -24 -62 -19 -84 26 -11 23 -19 47 -16 55 2 8 6 21 9
29 5 18 55 20 122 4z m612 -125 c12 -15 21 -34 21 -43 0 -33 21 -42 49 -20 20
16 33 19 61 13 19 -3 55 -6 80 -5 67 2 123 -33 131 -82 7 -45 19 -60 19 -24 0
64 59 108 117 86 13 -5 39 -9 56 -9 50 0 81 -21 87 -58 6 -41 22 -43 34 -3 12
40 43 42 52 4 14 -57 40 -70 42 -21 1 41 61 104 88 94 14 -5 15 -9 6 -15 -22
-13 23 -44 57 -39 29 4 43 -9 46 -44 1 -15 16 -20 29 -9 10 8 21 9 40 1 30
-11 115 -14 140 -4 9 3 16 12 16 20 0 16 9 18 30 4 13 -9 13 -10 0 -10 -11 -1
-10 -4 4 -15 25 -19 70 -19 89 0 8 8 17 11 21 8 3 -4 26 4 51 16 86 43 102 40
173 -28 67 -65 80 -69 133 -47 19 7 49 11 67 9 20 -3 41 1 57 11 29 19 49 12
42 -15 -3 -11 5 -29 19 -44 13 -14 24 -32 24 -39 0 -7 14 -39 31 -70 24 -46
28 -61 18 -72 -6 -8 -19 -14 -28 -14 -26 0 -23 -117 4 -144 11 -12 27 -40 34
-63 13 -38 12 -45 -8 -87 -19 -38 -21 -51 -12 -83 17 -61 13 -144 -8 -179 -19
-31 -19 -32 5 -74 28 -49 32 -120 9 -164 -12 -23 -13 -36 -5 -59 5 -17 10 -78
10 -136 0 -109 12 -151 44 -151 22 0 39 -28 32 -54 -3 -13 -28 -50 -55 -82
-27 -31 -47 -63 -44 -71 3 -7 2 -42 -1 -76 -6 -53 -11 -65 -34 -81 -15 -10
-38 -36 -52 -59 -34 -57 -82 -104 -105 -104 -11 0 -27 9 -35 20 -15 19 -16 19
-53 -3 l-38 -22 28 -15 c34 -18 43 -31 43 -65 0 -16 4 -28 8 -28 11 0 32 46
32 70 0 27 26 25 33 -2 6 -22 -12 -91 -39 -153 -30 -69 -64 -163 -64 -176 0
-32 -28 -54 -67 -54 -32 0 -39 -4 -41 -23 -3 -18 2 -23 27 -28 23 -5 31 -12
30 -28 -1 -37 -25 -91 -45 -101 -10 -6 -31 -18 -45 -28 -18 -12 -35 -16 -54
-11 -37 9 -102 13 -325 17 -215 4 -244 11 -233 55 4 18 2 23 -8 20 -7 -2 -16
-15 -19 -29 -6 -23 -8 -24 -119 -27 -99 -2 -119 0 -154 18 -39 21 -42 21 -79
4 -33 -15 -58 -16 -201 -10 -241 10 -265 15 -239 56 16 27 15 59 -3 66 -18 7
-19 39 -4 83 8 24 17 31 36 31 24 0 25 3 20 36 -8 46 2 70 52 122 44 46 53 49
104 27 39 -16 47 -30 47 -85 0 -41 16 -62 31 -39 5 8 9 28 9 44 0 33 15 63 26
52 4 -3 8 -25 10 -49 3 -39 31 -77 57 -78 5 0 22 -10 39 -21 23 -17 34 -19 51
-11 22 10 22 11 -4 11 -25 1 -77 46 -97 86 -25 49 64 137 121 119 36 -11 78
-45 87 -70 12 -31 37 -31 52 1 13 28 23 32 32 10 8 -23 34 -18 52 9 25 39 104
99 130 100 13 1 23 6 22 11 -3 10 -8 12 -40 14 -9 1 -21 15 -28 35 -6 19 -18
40 -25 46 -13 11 -15 6 -13 -26 2 -60 -8 -77 -63 -111 -51 -31 -52 -31 -88
-15 -54 25 -71 45 -80 93 l-8 44 -13 -42 c-11 -35 -18 -43 -37 -43 -18 0 -25
7 -29 30 -8 36 -24 40 -24 5 0 -38 -18 -68 -57 -92 -46 -30 -72 -29 -121 7
-31 22 -42 37 -42 58 l-1 27 -14 -32 c-11 -25 -20 -33 -40 -33 -17 0 -25 5
-25 18 0 10 -7 27 -15 38 -14 18 -15 15 -9 -29 5 -40 3 -53 -17 -82 -34 -49
-60 -61 -98 -45 -36 14 -36 16 -16 36 20 21 19 54 -2 70 -17 13 -17 14 0 8 12
-5 16 -2 12 9 -4 9 4 23 20 35 33 26 29 53 -10 67 -17 5 -33 14 -37 20 -14 19
-8 52 12 70 13 12 18 25 14 41 -4 15 1 32 15 50 26 32 26 53 4 93 -23 39 -12
51 57 59 l52 7 -36 33 c-48 44 -51 98 -6 149 17 18 30 38 30 43 0 6 7 10 15
10 8 0 15 7 15 15 0 25 -19 17 -40 -17 -29 -50 -37 -57 -60 -51 -25 7 -43 37
-36 61 3 9 -1 30 -9 46 -20 38 -19 41 10 54 26 12 26 12 8 37 -15 20 -24 23
-50 19 -28 -5 -33 -3 -39 20 -3 14 -3 42 0 62 4 19 3 41 -2 47 -4 7 -14 42
-21 80 -12 59 -11 70 3 92 23 34 20 59 -11 108 -27 40 -28 48 -29 167 -1 69
-4 166 -8 215 -4 53 -3 112 3 144 9 42 8 63 -4 96 -14 44 -5 115 15 115 14 0
7 73 -7 88 -29 31 -6 124 40 165 26 23 32 22 56 -9z m-1631 -72 c4 -26 -5 -58
-14 -49 -3 3 -9 22 -14 42 -7 31 -6 36 8 33 10 -2 18 -14 20 -26z m2907 -2 c3
-5 -1 -10 -10 -10 -9 0 -13 5 -10 10 3 6 8 10 10 10 2 0 7 -4 10 -10z m-135
-20 c0 -5 6 -7 13 -4 8 3 20 -2 27 -11 12 -14 12 -18 0 -25 -7 -4 -18 -6 -24
-4 -14 6 -37 54 -25 54 5 0 9 -4 9 -10z m470 -26 c0 -16 -26 -19 -35 -4 -4 6
-4 18 -1 27 5 12 9 13 21 3 8 -7 15 -19 15 -26z m148 -4 c1 -8 -11 -30 -27
-47 -24 -26 -38 -33 -68 -33 -43 0 -63 14 -63 43 0 16 5 19 31 13 32 -6 89 16
89 35 0 16 34 6 38 -11z m803 4 c30 -9 60 -18 67 -20 6 -2 12 -8 12 -14 0 -5
-6 -10 -12 -10 -21 0 -58 -63 -52 -86 9 -32 44 -44 82 -29 35 15 50 52 33 83
-16 29 -14 32 15 32 19 0 28 -8 40 -35 8 -19 19 -35 24 -35 5 0 12 16 16 35 3
20 12 35 20 35 8 0 14 4 14 9 0 4 20 14 45 21 36 10 48 10 60 0 19 -16 19 -53
-1 -91 -8 -17 -22 -74 -30 -127 -9 -64 -20 -103 -33 -116 -28 -31 -41 -61 -41
-93 0 -41 11 -52 49 -50 34 2 34 2 48 -61 14 -61 14 -65 -6 -86 -21 -22 -21
-45 -1 -126 5 -19 11 -63 15 -97 4 -34 13 -67 21 -74 8 -6 14 -19 14 -28 0 -9
4 -21 9 -26 12 -13 31 -107 31 -151 0 -19 5 -45 11 -57 9 -18 129 -164 174
-213 5 -6 28 -33 50 -60 22 -27 56 -67 75 -89 53 -60 70 -91 70 -129 0 -29 7
-41 46 -72 28 -23 47 -48 51 -66 4 -23 8 -26 19 -17 8 6 14 18 14 25 0 8 4 22
10 32 5 9 19 41 31 70 12 28 25 52 30 52 15 0 10 -37 -6 -50 -9 -7 -13 -15
-11 -18 3 -2 19 7 36 22 22 18 43 26 70 26 33 0 38 3 43 27 4 24 4 26 -8 10
-13 -18 -85 -25 -85 -7 0 6 7 10 15 10 19 0 19 11 0 36 -8 10 -15 27 -15 37 0
10 -4 15 -10 12 -5 -3 -10 3 -10 14 0 45 34 33 45 -16 9 -44 25 -42 25 2 0 22
-6 38 -15 41 -8 3 -17 16 -21 27 -4 12 -15 32 -25 45 -28 37 -7 132 45 197 18
22 42 57 55 78 12 20 27 37 32 37 5 0 9 8 9 19 0 31 30 93 43 88 7 -2 16 -16
21 -30 8 -22 6 -30 -9 -41 -11 -8 -23 -12 -27 -10 -15 9 -8 -24 7 -36 14 -12
14 -15 0 -36 -22 -34 -19 -64 6 -64 11 0 27 7 36 15 34 35 47 -3 25 -73 -10
-31 -9 -35 17 -49 26 -16 27 -18 14 -45 -9 -17 -12 -40 -8 -58 6 -27 4 -30
-18 -30 -18 0 -27 -7 -31 -24 -4 -15 -17 -28 -36 -34 -32 -12 -39 -37 -20 -73
9 -15 15 -17 30 -9 11 6 20 17 20 25 0 18 36 20 46 3 4 -6 0 -16 -8 -22 -20
-15 -31 -53 -18 -61 21 -13 -1 -24 -28 -14 -14 6 -28 7 -29 2 -12 -31 -80 -66
-135 -69 -29 -2 -49 -10 -67 -28 l-25 -26 69 3 c52 1 69 -1 67 -10 -1 -7 2
-13 7 -13 5 0 11 -11 13 -25 3 -13 1 -22 -3 -19 -5 3 -9 -2 -9 -11 0 -9 4 -14
9 -10 13 8 34 -33 27 -51 -3 -8 -2 -13 3 -10 11 7 49 -104 57 -168 6 -40 5
-48 -6 -41 -10 6 -12 4 -7 -9 4 -10 3 -26 -3 -35 -13 -25 -15 -78 -7 -183 5
-55 3 -89 -3 -93 -5 -3 -10 1 -10 9 0 9 -4 16 -10 16 -5 0 -10 -11 -10 -24 0
-14 5 -28 10 -31 17 -10 11 -51 -9 -69 -11 -10 -17 -24 -14 -32 6 -16 -15 -74
-27 -74 -12 0 -58 -112 -71 -171 -6 -30 -15 -58 -20 -63 -5 -6 -9 -16 -9 -23
0 -18 -33 -93 -41 -93 -10 0 -19 26 -35 100 -7 36 -24 107 -38 158 -13 52 -27
121 -30 155 -14 145 -54 338 -106 516 -11 35 -16 69 -13 74 3 6 1 7 -5 3 -8
-4 -12 0 -12 11 0 11 -4 23 -9 29 -14 15 -83 223 -76 233 3 5 1 12 -5 16 -5 3
-10 0 -11 -7 0 -7 -9 10 -19 37 -10 28 -27 68 -38 90 -21 42 -20 60 4 51 7 -3
16 -1 19 5 4 5 13 2 22 -7 15 -15 17 -14 29 8 34 61 -9 80 -72 32 -19 -15 -34
-21 -34 -15 0 23 -179 381 -190 381 -6 0 -22 -7 -35 -16 -23 -15 -27 -15 -50
0 -29 19 -40 53 -31 101 10 50 -20 48 -33 -2 -29 -113 -25 -128 34 -128 26 0
30 -3 28 -27 -2 -34 -30 -72 -63 -86 -55 -24 -120 -36 -131 -25 -17 17 -1 52
26 59 16 4 26 16 30 34 3 16 12 34 20 40 23 19 -11 110 -42 110 -10 0 -11 -4
-3 -19 29 -54 2 -108 -72 -144 -29 -14 -36 -14 -72 1 -55 21 -66 35 -68 77 -2
43 -8 48 -42 35 -17 -6 -26 -17 -26 -32 l-1 -23 -20 25 c-12 14 -29 25 -38 25
-8 0 -22 13 -29 28 -14 28 -34 41 -84 51 -28 6 -28 8 -28 81 0 78 2 82 55 100
21 7 31 17 33 35 2 21 -4 29 -33 43 -39 18 -42 31 -24 103 13 51 25 55 56 17
16 -20 22 -24 23 -12 0 9 14 33 30 54 17 21 30 42 30 48 0 6 7 18 16 28 14 15
21 16 71 4 56 -13 73 -26 73 -57 0 -30 -12 -49 -38 -59 -20 -8 -29 -6 -44 11
-20 22 -35 25 -57 11 -11 -7 -10 -11 7 -20 11 -6 30 -11 41 -11 14 0 21 -6 21
-19 0 -29 -22 -41 -63 -34 -41 6 -49 -7 -24 -42 21 -28 82 -12 126 32 20 20
52 46 72 59 l37 23 59 -28 c89 -43 103 -46 103 -21 0 12 -9 24 -22 29 -39 15
-68 50 -68 81 0 24 9 36 39 58 44 30 51 45 51 115 0 39 -5 52 -26 72 -15 14
-34 25 -44 25 -9 0 -26 9 -38 20 -12 11 -33 20 -46 20 -15 0 -31 -9 -38 -20
-7 -11 -18 -20 -25 -20 -7 0 -13 -10 -13 -21 0 -17 5 -20 21 -16 13 3 28 -2
40 -14 18 -18 20 -18 54 -2 34 16 36 16 57 -5 28 -28 17 -66 -27 -90 -16 -9
-35 -23 -43 -29 -18 -18 -67 -16 -82 2 -7 8 -18 15 -25 15 -20 0 -34 45 -25
84 9 42 -1 46 -40 16 -14 -11 -32 -20 -41 -20 -30 0 -80 32 -102 65 -16 24
-31 35 -58 39 -41 7 -49 19 -49 77 0 52 15 79 43 79 29 0 67 27 67 47 0 29
-31 53 -68 53 -34 0 -34 1 -28 32 10 49 29 64 61 50 14 -7 34 -12 45 -12 10 0
22 -9 25 -20 10 -30 34 -50 61 -50 28 0 32 23 9 46 -22 23 -18 32 18 43 44 13
38 13 98 -5z m-4254 -31 c14 -16 29 -27 34 -26 11 3 22 -55 17 -93 -2 -16 -8
-29 -15 -29 -6 0 -15 -4 -19 -8 -5 -4 -28 -17 -53 -28 -39 -17 -47 -18 -66 -5
-39 26 -51 100 -28 179 12 43 93 49 130 10z m3833 -27 c0 -34 0 -35 -32 -25
-18 5 -34 9 -35 9 -10 0 0 25 15 36 32 25 52 17 52 -20z m-2500 -2 c0 -8 -4
-14 -10 -14 -5 0 -10 9 -10 21 0 11 5 17 10 14 6 -3 10 -13 10 -21z m-281 -40
c15 -19 21 -22 21 -11 0 19 74 37 105 27 53 -19 53 -174 0 -213 -20 -14 -32
-16 -65 -8 -36 8 -40 7 -40 -11 0 -10 4 -17 8 -14 5 3 21 2 37 -2 41 -11 104
-121 112 -198 4 -34 1 -45 -22 -70 -15 -16 -30 -33 -33 -39 -16 -24 -57 -42
-80 -34 -13 5 -22 5 -22 -1 0 -6 4 -10 9 -10 17 0 41 -31 41 -53 0 -12 -11
-35 -25 -50 l-26 -27 37 0 c25 0 43 -7 56 -22 19 -23 19 -23 -7 -30 -35 -9
-56 -27 -70 -61 -11 -27 -12 -27 -33 -9 -12 11 -22 27 -22 36 0 12 -6 15 -24
10 -35 -8 -45 18 -35 90 4 32 4 124 -2 204 -9 155 -11 146 39 200 18 20 15 36
-18 77 -28 35 -30 43 -30 122 0 46 5 93 10 104 15 27 55 24 79 -7z m2569 -12
c4 -25 -23 -41 -40 -24 -7 7 -6 17 2 32 14 26 34 22 38 -8z m2285 -15 c11 -21
29 -40 42 -43 28 -7 85 21 85 41 0 20 26 19 34 -1 17 -45 -3 -114 -34 -114 -5
0 -21 -11 -36 -25 -15 -14 -31 -25 -35 -25 -5 0 -20 25 -34 55 -19 38 -34 57
-50 61 -36 9 -50 68 -22 86 19 12 29 4 50 -35z m-5445 -17 c10 -16 10 -24 0
-40 -7 -11 -17 -20 -23 -20 -5 0 -20 -3 -32 -6 -21 -6 -21 -6 -5 40 18 50 39
59 60 26z m6284 9 c17 11 23 9 43 -9 12 -12 29 -20 36 -18 8 1 15 -2 17 -7 1
-6 -6 -10 -17 -11 -24 -1 -46 -22 -56 -53 -7 -23 -5 -24 26 -17 18 3 35 10 39
14 7 11 43 26 55 23 6 -2 17 -4 25 -5 10 -2 17 -19 20 -48 10 -78 42 -98 85
-52 30 33 32 65 5 89 -31 28 -26 55 9 55 17 0 33 5 36 10 3 6 18 10 32 10 22
0 24 -3 18 -22 -12 -43 -13 -68 -2 -69 27 -3 51 4 81 22 34 21 61 25 51 9 -4
-6 7 -40 24 -75 23 -46 30 -72 25 -91 l-7 -26 -24 31 c-13 17 -30 31 -36 31
-7 0 -30 12 -51 26 l-38 26 -22 -21 c-12 -12 -26 -21 -31 -21 -11 0 -34 -32
-35 -47 0 -22 38 -14 58 12 11 14 23 25 27 25 15 0 95 -62 95 -74 0 -8 -11
-24 -25 -37 -28 -26 -56 -80 -75 -144 -10 -35 -9 -47 6 -83 10 -23 21 -42 25
-42 3 0 19 -11 35 -25 23 -20 30 -22 32 -10 4 16 39 20 61 6 10 -6 10 -13 3
-28 -6 -11 -13 -33 -15 -49 -2 -20 -10 -30 -24 -32 -27 -4 -60 -40 -68 -74 -8
-32 23 -68 58 -68 20 0 22 -5 24 -60 2 -54 0 -60 -17 -60 -14 0 -20 7 -20 23
0 42 -21 59 -70 55 l-44 -3 27 -29 c43 -46 41 -56 -26 -129 -57 -62 -72 -68
-82 -36 -4 11 -22 27 -41 35 -32 13 -38 23 -35 51 3 26 -18 21 -28 -7 -5 -17
-14 -30 -20 -30 -10 0 -25 19 -27 35 0 6 -2 15 -2 22 -1 6 -14 16 -29 22 -50
21 -75 39 -87 62 -17 36 -48 35 -74 -1 -12 -16 -32 -30 -43 -30 -14 0 -25 -12
-36 -37 -9 -21 -16 -41 -15 -45 1 -5 -2 -8 -6 -8 -14 0 -32 23 -32 41 0 9 -14
28 -32 43 -34 28 -48 32 -48 16 0 -5 4 -10 9 -10 5 0 14 -13 20 -28 16 -38 3
-70 -45 -112 -34 -29 -38 -39 -42 -89 -3 -44 0 -60 12 -70 9 -7 16 -19 16 -26
0 -8 14 -25 31 -38 30 -23 31 -27 22 -63 -5 -22 -14 -38 -20 -37 -16 3 -65
-65 -61 -85 3 -15 7 -13 28 9 14 14 40 34 58 43 22 11 35 26 39 46 7 35 14 37
31 10 17 -27 26 -25 39 9 11 30 94 90 124 91 8 0 26 -11 39 -25 13 -14 30 -25
37 -25 22 0 4 -81 -22 -102 -23 -18 -40 -68 -23 -68 14 0 98 83 98 98 0 6 7
12 16 12 24 0 186 162 174 174 -13 13 -13 66 0 66 6 0 10 -15 10 -32 0 -40 8
-53 38 -63 24 -7 40 -37 63 -112 11 -38 9 -50 -11 -109 -27 -82 -30 -207 -6
-274 11 -29 15 -58 11 -82 -6 -36 5 -52 20 -28 10 16 62 12 69 -5 6 -17 -2
-45 -14 -45 -5 0 -10 -10 -12 -21 -3 -21 -5 -20 -37 10 -33 31 -35 31 -52 14
-9 -10 -28 -38 -42 -63 -17 -32 -37 -51 -67 -65 -39 -19 -41 -22 -36 -54 6
-39 -7 -61 -35 -61 -23 0 -25 -16 -4 -24 18 -7 20 -42 3 -53 -20 -11 -52 -9
-66 5 -17 16 -67 16 -80 -1 -21 -25 -24 -65 -7 -91 10 -14 24 -26 31 -26 8 0
14 -3 14 -7 -1 -13 -27 -43 -38 -43 -5 0 -37 27 -71 60 -64 63 -78 66 -106 24
-8 -13 -22 -24 -30 -24 -8 0 -15 -4 -15 -8 0 -4 -14 -16 -31 -26 -30 -18 -79
-16 -79 4 0 6 -12 10 -26 10 -21 0 -25 -3 -18 -17 4 -10 8 -37 9 -61 2 -53 9
-61 73 -71 28 -4 58 -14 67 -21 9 -8 27 -10 47 -6 41 8 55 8 96 0 20 -4 61 0
103 11 66 16 72 16 89 0 10 -9 26 -15 36 -13 16 3 61 72 84 128 5 14 15 33 20
42 6 10 10 24 10 32 0 22 32 53 62 60 21 5 34 0 58 -24 39 -38 47 -77 25 -120
-16 -31 -16 -33 3 -46 18 -12 19 -22 15 -76 -3 -35 -11 -66 -17 -70 -6 -4 -28
-8 -49 -8 -21 0 -48 -5 -59 -11 -33 -18 -337 -20 -370 -3 -21 11 -69 13 -220
10 -240 -4 -423 3 -444 19 -18 12 -20 47 -9 131 7 46 5 53 -16 67 -20 14 -20
17 -6 23 11 4 17 17 17 38 0 24 -3 27 -10 16 -9 -13 -10 -13 -10 0 -1 8 -7 3
-16 -12 -21 -40 -34 -34 -35 15 -4 165 -10 279 -19 321 -12 56 0 79 35 70 19
-5 20 -13 18 -115 l-1 -109 24 0 c31 0 41 24 26 64 -11 28 -10 33 13 49 31 23
32 49 4 89 -32 45 -9 58 29 17 50 -54 69 -95 54 -119 -10 -17 -10 -20 2 -20 9
0 16 12 18 28 3 23 8 27 34 28 18 1 45 10 60 20 16 11 47 26 68 33 l39 13 49
-53 c26 -29 48 -59 48 -67 0 -8 -9 -30 -21 -48 -19 -31 -19 -34 -3 -34 20 0
43 28 44 52 0 29 20 31 41 4 11 -14 23 -26 27 -26 4 0 14 17 23 39 10 23 25
40 38 44 20 5 22 3 16 -23 -10 -43 9 -70 49 -70 26 0 35 5 39 22 7 26 -27 68
-55 68 -23 0 -23 5 3 31 17 17 23 18 37 7 35 -28 61 -64 62 -84 0 -31 -65
-102 -98 -106 -23 -3 -27 -8 -27 -34 l0 -30 75 46 c41 25 83 49 93 53 9 3 17
16 17 28 0 18 2 19 15 9 21 -18 45 -5 45 25 0 14 11 42 25 62 13 20 22 39 20
43 -6 9 -54 0 -61 -11 -12 -20 -50 -7 -86 28 -44 43 -47 61 -14 100 36 44 44
64 42 115 -2 38 -8 54 -31 78 -16 16 -34 30 -39 30 -6 0 -21 18 -34 40 -26 45
-48 51 -62 16 -5 -13 -21 -32 -35 -43 -51 -34 -65 -53 -65 -83 0 -40 -26 -40
-33 0 -6 28 -75 110 -93 110 -5 0 -17 14 -26 31 -14 24 -22 29 -40 23 -12 -3
-28 -13 -36 -21 -8 -7 -29 -20 -47 -27 -20 -9 -41 -28 -51 -48 -15 -30 -18
-31 -25 -13 -4 11 -8 32 -8 48 -1 15 -6 27 -12 27 -5 0 -7 5 -4 10 3 6 21 10
40 10 27 0 34 4 40 27 4 18 1 34 -12 51 -31 41 -48 48 -80 32 -15 -8 -31 -16
-35 -18 -12 -6 -9 34 4 63 6 14 17 25 24 25 15 0 24 23 24 60 0 61 69 44 71
-18 l2 -37 6 35 c8 49 43 90 75 90 29 0 43 21 46 70 4 69 0 80 -45 122 -47 45
-51 57 -35 105 9 24 16 29 33 26 27 -5 77 34 77 60 0 25 -42 18 -77 -13 -15
-14 -37 -25 -48 -25 -13 0 -22 -10 -29 -33 -13 -48 -37 -37 -53 23 -19 73 -18
74 28 72 53 -3 71 20 49 60 -9 15 -27 33 -40 40 -20 10 -29 9 -56 -8 -38 -23
-47 -12 -34 47 10 41 6 54 -15 54 -7 0 -15 7 -19 15 -3 8 -1 15 5 15 17 0 32
53 20 73 -9 13 -8 17 2 17 16 0 40 -71 31 -94 -3 -9 -1 -16 6 -16 6 0 8 -4 5
-10 -13 -21 25 3 39 26 17 24 46 23 46 -1 0 -32 25 -24 63 21 23 27 54 62 68
78 l27 31 21 -37 c14 -23 36 -42 61 -52 21 -8 44 -24 49 -35 16 -30 60 -36 83
-12 10 12 32 28 48 36 16 8 37 28 47 45 19 33 33 39 33 15 0 -9 19 -33 43 -55
39 -36 42 -43 42 -90 0 -56 15 -67 29 -21 7 25 17 33 47 41 21 6 42 17 46 24
4 7 18 18 31 25 12 6 22 18 22 25 0 7 9 21 20 31 23 21 26 67 6 84 -16 13 -20
9 -30 -32 -7 -30 -77 -87 -107 -87 -28 0 -88 70 -89 103 0 15 5 27 10 27 6 0
21 9 33 20 28 27 65 36 88 21 26 -16 49 -14 71 6 23 20 23 30 -2 78 -11 22
-17 47 -14 57 11 35 -25 19 -51 -22 -29 -46 -45 -44 -45 5 0 28 -6 37 -29 49
-16 9 -42 28 -58 44 -33 34 -68 48 -78 32 -4 -6 -13 -9 -20 -6 -7 2 -21 -5
-32 -16 -10 -11 -30 -26 -44 -34 -16 -8 -29 -25 -32 -44 -9 -40 -37 -41 -37 0
0 17 -4 30 -8 30 -9 0 -85 63 -125 105 -27 27 -30 28 -42 12 -7 -9 -20 -17
-29 -17 -9 0 -16 -3 -16 -8 0 -4 -20 -18 -45 -31 -28 -15 -45 -31 -45 -42 0
-11 -5 -16 -12 -13 -17 6 -56 66 -64 99 -4 15 -12 29 -20 32 -16 6 -28 55 -20
81 5 14 13 17 37 14 19 -3 26 -7 19 -12 -7 -4 -12 -25 -12 -45 0 -28 6 -43 24
-56 63 -49 140 14 93 77 -22 29 -18 44 12 44 30 0 73 -35 73 -60 0 -30 19 -38
61 -26 43 13 67 30 92 66 19 27 81 41 115 26 17 -7 29 -6 44 3z m1108 -10 c0
-16 -4 -19 -17 -14 -10 4 -28 10 -40 12 -33 8 -17 23 23 23 28 0 34 -4 34 -21z
m-4004 -63 c-5 -47 -3 -66 8 -81 19 -25 20 -46 2 -82 -8 -15 -20 -43 -27 -60
-12 -34 -35 -43 -57 -21 -19 19 -15 27 24 43 35 14 36 16 22 37 -8 12 -23 27
-34 32 -25 14 -34 28 -26 40 3 6 7 37 7 69 1 55 2 58 35 76 19 10 39 16 44 14
4 -3 5 -33 2 -67z m3701 36 c-21 -4 -49 16 -41 29 3 5 17 1 32 -9 21 -14 23
-17 9 -20z m173 34 c0 -16 -14 -36 -26 -36 -14 0 -19 22 -7 33 7 8 33 10 33 3z
m-6902 -18 c15 -15 16 -48 2 -48 -6 0 -20 -9 -32 -20 -12 -11 -25 -20 -30 -20
-13 0 -9 17 7 30 8 7 12 16 9 21 -6 10 13 49 24 49 5 0 13 -5 20 -12z m7275
-2 c26 -20 21 -26 -20 -26 -21 0 -53 -10 -72 -21 -31 -19 -39 -20 -73 -8 -53
17 -50 38 5 32 33 -4 48 0 67 16 29 23 67 26 93 7z m77 -10 c-25 -15 -45 -12
-35 5 4 5 18 9 33 9 l27 -1 -25 -13z m-8104 -80 c22 -15 24 -22 24 -107 0 -78
-2 -90 -16 -87 -9 2 -25 18 -35 37 -22 41 -89 80 -89 51 0 -5 6 -10 13 -10 8
0 25 -26 39 -57 39 -87 40 -94 22 -114 -23 -25 -8 -43 16 -19 40 40 41 38 42
-150 0 -91 -3 -135 -11 -138 -6 -2 -11 -9 -11 -16 0 -24 -40 -64 -71 -71 -17
-4 -45 -4 -63 -1 -28 5 -35 13 -44 45 -15 48 -15 118 -1 126 6 4 9 21 8 39 -1
17 1 41 5 53 4 13 0 35 -13 60 -35 69 -27 199 14 231 17 14 21 22 14 35 -13
22 6 57 31 57 11 0 35 8 55 17 26 12 35 23 36 42 1 16 3 19 6 9 2 -9 15 -24
29 -32z m5645 17 c-8 -15 -10 -15 -11 -2 0 17 10 32 18 25 2 -3 -1 -13 -7 -23z
m169 -39 c0 -17 -30 -45 -41 -39 -5 4 -9 29 -9 56 l0 50 25 -27 c14 -15 25
-33 25 -40z m2294 25 c-7 -11 -34 -12 -34 -1 0 14 11 21 26 15 8 -3 11 -9 8
-14z m-434 -4 c0 -9 -6 -12 -15 -9 -8 4 -15 10 -15 15 0 5 7 9 15 9 8 0 15 -7
15 -15z m-7409 -55 c12 0 49 -33 49 -44 0 -5 10 -18 23 -30 12 -11 37 -49 55
-84 l34 -63 -46 -45 c-25 -25 -46 -49 -46 -55 0 -5 -11 -15 -25 -21 -41 -19
-28 -88 27 -139 15 -14 28 -31 28 -37 0 -7 6 -12 13 -13 9 0 9 -2 0 -6 -9 -3
-10 -9 -1 -22 6 -10 8 -26 4 -36 -6 -17 -7 -17 -26 0 -11 10 -22 26 -25 36 -8
25 -35 24 -80 -2 -20 -12 -38 -19 -41 -17 -11 11 -16 86 -20 330 -6 284 -3
304 45 267 13 -11 28 -19 32 -19z m8409 20 c8 -5 11 -10 5 -10 -5 0 -17 5 -25
10 -8 5 -10 10 -5 10 6 0 17 -5 25 -10z m-8217 -111 c-7 -7 -17 -4 -32 12 -27
29 -27 53 2 79 l22 21 9 -51 c6 -34 5 -55 -1 -61z m5547 81 c0 -23 -4 -30 -20
-30 -14 0 -20 7 -20 23 0 27 7 37 27 37 8 0 13 -12 13 -30z m-5206 -16 c10
-26 7 -72 -5 -80 -14 -8 -48 33 -49 58 0 9 8 22 18 27 24 14 29 13 36 -5z
m5346 -50 c0 -30 -13 -44 -41 -44 -8 0 -4 64 7 99 7 23 33 -19 34 -55z m2730
63 c0 -2 -8 -12 -19 -21 -17 -16 -19 -16 -24 4 -4 16 0 20 19 20 13 0 24 -2
24 -3z m-2453 -27 c10 -11 23 -20 30 -20 16 0 33 -32 33 -63 0 -26 -30 -63
-73 -91 -26 -18 -26 -18 -82 37 -49 47 -55 58 -49 81 4 19 15 29 34 32 15 3
33 14 41 25 17 25 45 24 66 -1z m346 -44 c14 -13 33 -38 42 -55 15 -30 15 -35
0 -57 -8 -13 -20 -24 -26 -24 -6 0 -17 -7 -25 -15 -19 -18 -50 -19 -63 -2 -6
6 -24 29 -41 49 -22 26 -30 45 -28 65 3 24 9 29 43 34 21 4 41 12 43 18 6 18
27 13 55 -13z m1826 -46 c35 -42 58 -50 67 -25 9 22 31 18 45 -6 15 -29 -4
-41 -55 -35 -29 3 -48 15 -77 46 -34 37 -42 60 -21 60 4 0 22 -18 41 -40z
m-2689 10 c11 -11 23 -20 26 -20 12 0 44 -43 44 -59 0 -23 -10 -34 -51 -59
-47 -28 -57 -28 -71 6 -7 15 -23 36 -35 47 -26 23 -30 53 -10 77 25 32 69 36
97 8z m-1965 -10 c3 -5 15 -10 25 -10 27 0 37 -46 19 -79 -16 -29 -82 -52
-100 -34 -17 17 -23 82 -9 109 14 24 53 33 65 14z m-3205 -28 c0 -10 7 -27 15
-39 13 -19 12 -25 -8 -64 -14 -27 -36 -51 -57 -61 -19 -10 -36 -16 -38 -14 -6
7 -5 152 2 174 6 18 15 22 47 22 31 0 39 -4 39 -18z m8240 -8 c0 -8 -5 -12
-10 -9 -6 4 -8 11 -5 16 9 14 15 11 15 -7z m-160 -8 c0 -7 6 -19 14 -25 8 -6
16 -22 18 -35 4 -22 3 -23 -19 -13 -23 10 -33 33 -31 70 2 20 18 23 18 3z
m-2563 -46 c18 -16 38 -30 43 -30 18 0 22 -41 6 -65 -11 -17 -29 -26 -61 -31
-44 -6 -47 -5 -80 32 -19 22 -34 45 -35 52 0 19 55 72 75 72 10 0 33 -13 52
-30z m983 5 c20 -24 17 -90 -5 -115 -16 -18 -27 -21 -60 -15 -73 11 -76 57 -7
109 54 41 55 41 72 21z m508 -9 c15 -8 40 -17 56 -21 26 -5 28 -9 22 -38 -8
-41 11 -69 47 -69 36 0 51 14 66 62 6 22 14 40 16 40 15 0 37 -15 46 -31 8
-16 1 -29 -49 -79 -53 -54 -63 -60 -100 -60 -30 0 -48 7 -69 26 -55 52 -101
49 -141 -8 -8 -11 -23 -18 -35 -16 -18 2 -22 9 -20 32 3 35 -12 56 -38 56 -10
0 -21 5 -24 10 -11 18 15 40 46 40 25 0 85 31 114 59 14 14 33 13 63 -3z
m-1144 -33 c40 -31 47 -41 44 -67 -3 -26 -12 -36 -56 -59 l-53 -29 -44 37
c-27 22 -45 45 -45 57 0 22 74 98 95 98 6 0 33 -17 59 -37z m-753 -48 c38 -32
79 -46 116 -39 l33 6 0 -51 c0 -34 -5 -53 -13 -57 -11 -4 -11 -22 0 -107 14
-104 11 -160 -11 -202 l-13 -24 -16 34 c-15 31 -20 34 -46 29 -28 -6 -32 -3
-46 33 -8 21 -23 43 -33 49 -15 10 -17 7 -13 -33 3 -48 -11 -73 -41 -73 -17 0
-19 5 -14 26 5 20 0 37 -19 66 -19 29 -24 43 -16 51 15 15 14 73 -1 97 -10 15
-9 24 2 44 11 21 11 31 1 52 -11 24 -9 30 14 54 20 21 24 33 19 58 -4 17 -4
39 0 48 5 14 11 12 40 -13 18 -15 44 -37 57 -48z m-166 48 c-15 -35 -17 -61
-6 -67 14 -9 15 -46 1 -46 -5 0 -10 7 -10 15 0 9 -7 27 -16 41 -14 20 -15 30
-6 49 13 29 49 36 37 8z m2896 -43 c5 0 9 -7 9 -15 0 -8 -4 -15 -10 -15 -15 0
-32 40 -24 58 6 14 8 14 11 -5 3 -13 9 -23 14 -23z m-3034 -17 c18 -19 19 -24
7 -34 -23 -19 -74 7 -72 37 3 30 34 28 65 -3z m-5083 -15 c10 -40 6 -142 -8
-166 l-12 -23 -37 42 c-20 23 -37 46 -37 51 0 24 64 118 81 118 3 0 9 -10 13
-22z m339 -5 c9 -15 -8 -196 -18 -200 -6 -2 -23 22 -39 52 -15 30 -33 55 -39
55 -7 0 -3 8 9 18 12 9 30 32 40 50 17 30 38 41 47 25z m7308 -10 c4 -40 -4
-99 -13 -110 -13 -16 -44 -17 -53 -2 -4 6 2 20 13 32 24 27 18 47 -12 47 -19
0 -22 4 -18 25 4 22 10 25 43 25 30 0 39 -4 40 -17z m-634 1 c-3 -3 -12 -4
-19 -1 -8 3 -5 6 6 6 11 1 17 -2 13 -5z m-3723 -23 c3 -5 -1 -11 -9 -15 -15
-6 -29 7 -18 18 9 9 21 8 27 -3z m3762 -11 c8 0 14 -9 14 -19 0 -30 -17 -34
-24 -6 -4 14 -11 23 -16 20 -6 -4 -7 1 -3 11 4 11 8 13 11 6 2 -7 10 -12 18
-12z m502 -43 c-6 -12 -14 -29 -18 -37 -4 -8 -15 -17 -25 -18 -50 -10 -43 62
8 76 41 11 49 6 35 -21z m-263 3 c63 -39 65 -120 4 -120 -18 0 -28 -6 -32 -20
-7 -28 -37 -37 -52 -17 -17 24 -70 21 -94 -5 -19 -20 -21 -20 -27 -3 -5 12 -1
23 12 34 11 9 31 32 44 51 42 60 79 93 109 99 2 1 18 -8 36 -19z m-2068 -44
c5 -32 3 -38 -16 -43 -11 -3 -21 -10 -21 -15 0 -5 -5 -6 -10 -3 -12 7 -4 68
12 99 13 24 27 9 35 -38z m2893 13 c0 -5 -4 -9 -10 -9 -5 0 -10 7 -10 16 0 8
5 12 10 9 6 -3 10 -10 10 -16z m-4820 -39 c0 -30 -11 -37 -44 -24 -16 6 -22
35 -9 47 3 4 17 7 30 7 19 0 23 -5 23 -30z m3636 13 c18 -24 17 -43 -1 -43 -8
0 -15 6 -15 14 0 8 -3 21 -6 30 -8 21 6 20 22 -1z m-1886 -23 c0 -5 -2 -10 -4
-10 -3 0 -8 5 -11 10 -3 6 -1 10 4 10 6 0 11 -4 11 -10z m-4793 -23 c7 -5 11
-13 8 -17 -2 -4 2 -16 10 -26 23 -31 20 -47 -7 -32 -23 13 -29 15 -60 17 -13
1 -18 10 -18 34 0 19 3 36 6 39 7 7 45 -2 61 -15z m4773 -43 c0 -25 -26 -61
-36 -51 -3 3 0 23 7 46 13 43 29 46 29 5z m-1709 -39 c11 -51 10 -143 -3 -170
-11 -24 -28 -34 -28 -17 0 4 -13 16 -30 25 -29 18 -30 20 -30 98 0 73 2 80 23
89 39 16 61 8 68 -25z m4832 6 c2 -10 1 -25 -4 -32 -5 -8 -9 -9 -9 -4 0 6 -3
20 -6 33 -4 12 -2 22 4 22 5 0 12 -9 15 -19z m-675 -5 c28 -17 -4 -65 -43 -66
-11 0 -39 -3 -62 -6 -36 -5 -43 -3 -43 11 0 18 23 45 38 45 5 0 15 7 22 15 13
15 65 16 88 1z m565 -6 c3 -13 0 -20 -8 -20 -17 0 -28 17 -20 30 10 16 22 12
28 -10z m-1253 -20 c0 -11 -4 -20 -10 -20 -5 0 -10 9 -10 20 0 11 5 20 10 20
6 0 10 -9 10 -20z m-6480 4 c0 -8 -19 -13 -24 -6 -3 5 1 9 9 9 8 0 15 -2 15
-3z m397 -16 c-3 -8 -6 -5 -6 6 -1 11 2 17 5 13 3 -3 4 -12 1 -19z m7253 -38
c0 -11 -4 -20 -10 -20 -5 0 -10 9 -10 20 0 11 5 20 10 20 6 0 10 -9 10 -20z
m-385 -10 c3 -5 1 -10 -4 -10 -6 0 -11 5 -11 10 0 6 2 10 4 10 3 0 8 -4 11
-10z m-8345 -20 c0 -5 -2 -10 -4 -10 -3 0 -8 5 -11 10 -3 6 -1 10 4 10 6 0 11
-4 11 -10z m6422 -27 c10 -9 18 -26 18 -37 0 -31 -28 -66 -52 -66 -17 0 -19 4
-13 23 4 12 9 39 12 60 6 42 9 44 35 20z m1414 -8 c4 -8 3 -23 -1 -32 -6 -16
-8 -16 -26 6 -10 12 -16 27 -13 32 8 14 34 10 40 -6z m584 -19 c0 -32 -14 -55
-26 -43 -8 8 7 77 17 77 5 0 9 -15 9 -34z m370 14 c14 -10 21 -22 16 -27 -5
-4 -11 -2 -13 5 -7 18 -23 15 -23 -5 -1 -16 -2 -16 -15 1 -33 43 -9 60 35 26z
m78 -8 c3 -18 -2 -22 -23 -22 -14 0 -24 3 -22 8 2 4 7 15 10 25 9 24 31 17 35
-11z m-9018 -12 c0 -5 -4 -10 -10 -10 -5 0 -10 5 -10 10 0 6 5 10 10 10 6 0
10 -4 10 -10z m7200 -42 c21 -24 29 -43 30 -70 0 -33 -5 -41 -38 -63 -42 -28
-63 -26 -81 8 -6 12 -25 30 -41 39 -32 19 -36 33 -19 72 9 18 24 28 53 35 62
14 64 13 96 -21z m1051 11 c17 -12 39 -19 49 -16 29 8 44 -17 32 -52 -6 -16
-8 -39 -5 -51 5 -18 2 -21 -13 -18 -12 2 -22 16 -28 41 -10 37 -19 46 -31 27
-3 -5 -14 -10 -24 -10 -13 0 -20 10 -24 36 -6 33 -1 64 10 64 3 0 18 -9 34
-21z m-4035 -53 c-9 -49 -30 -63 -50 -34 -9 12 -16 27 -16 33 0 11 61 46 69
39 2 -2 0 -19 -3 -38z m4713 20 c28 -26 91 -45 91 -27 0 6 7 8 15 5 8 -4 15
-17 15 -30 0 -19 -5 -24 -25 -24 -14 0 -29 -8 -35 -20 -15 -29 -30 -25 -36 10
-7 35 -28 54 -58 55 -15 0 -22 7 -24 28 -4 35 22 37 57 3z m-2571 -6 c7 -11
19 -20 27 -20 17 0 35 -30 35 -59 0 -19 -57 -71 -93 -84 -16 -6 -16 -7 0 -27
10 -11 23 -20 29 -20 7 0 14 -7 18 -15 4 -11 13 -14 31 -9 17 4 25 2 26 -7 0
-8 3 -26 5 -40 3 -21 0 -28 -16 -32 -20 -5 -21 -10 -14 -69 3 -35 10 -67 15
-72 10 -11 -4 -38 -44 -88 -38 -47 -68 -50 -84 -8 -15 40 -43 40 -43 1 0 -45
-9 -59 -47 -72 -28 -9 -37 -9 -44 2 -10 17 -1 32 16 25 38 -14 16 62 -23 79
-26 12 -27 18 -5 56 16 27 16 30 -4 56 -16 22 -18 34 -11 53 5 14 7 46 4 72
-4 40 -2 48 14 53 27 9 32 33 13 72 -31 67 25 100 65 38 12 -19 29 -35 37 -35
22 0 18 43 -5 58 -27 17 -25 58 5 87 30 31 75 33 93 5z m1546 -23 c-7 -19 -20
-22 -29 -7 -3 6 -1 10 4 10 6 0 10 3 10 8 -3 18 2 25 11 16 6 -6 8 -18 4 -27z
m581 13 c-4 -21 10 -34 35 -35 8 0 21 -4 28 -8 14 -9 17 -93 3 -102 -6 -3 -25
8 -43 24 -18 16 -44 29 -58 29 -22 0 -25 -5 -25 -35 0 -27 -7 -40 -31 -59
l-31 -24 0 47 c0 27 -3 58 -7 70 -7 19 -3 23 29 32 20 5 42 7 50 5 12 -5 25
18 30 51 4 22 5 25 14 25 6 0 8 -9 6 -20z m-4071 -30 c33 -31 6 -85 -60 -120
-22 -12 -27 -12 -35 0 -10 15 -6 120 5 139 9 15 67 2 90 -19z m3612 -7 c-11
-11 -19 6 -11 24 8 17 8 17 12 0 3 -10 2 -21 -1 -24z m-262 13 c-5 -14 -54
-40 -54 -29 0 11 34 42 47 42 7 1 10 -5 7 -13z m231 -33 c-23 -84 14 -142 66
-105 16 11 24 12 27 4 5 -17 57 -15 72 3 17 20 5 45 -21 45 -21 0 -59 34 -59
52 0 4 23 8 50 8 28 0 53 0 58 1 4 0 9 -10 12 -23 4 -16 13 -23 30 -23 23 0
25 -3 22 -47 -3 -39 0 -48 18 -58 12 -7 35 -10 51 -8 23 4 29 1 29 -14 0 -10
-10 -30 -23 -43 -19 -22 -27 -24 -54 -16 -18 5 -47 21 -66 35 -38 29 -78 33
-101 11 -8 -8 -21 -15 -29 -15 -8 0 -17 -7 -21 -15 -3 -8 -12 -15 -21 -15 -8
0 -15 7 -15 15 0 8 4 15 10 15 5 0 7 8 3 18 -10 28 -45 62 -64 62 -9 0 -19 6
-21 12 -3 9 -12 8 -32 -5 -25 -17 -26 -20 -11 -31 27 -19 14 -45 -32 -66 -35
-15 -42 -16 -47 -4 -3 8 -2 14 2 14 4 0 6 18 4 40 -2 22 -9 40 -15 40 -26 0
62 59 96 64 21 4 36 10 33 15 -6 9 34 61 47 61 5 0 6 -12 2 -27z m-1287 -44
c23 -29 42 -54 42 -58 -2 -28 -81 -68 -113 -56 -18 8 -67 79 -67 99 0 19 57
66 79 66 10 0 36 -23 59 -51z m936 26 c-4 -8 -13 -15 -21 -15 -13 0 -13 3 -3
15 7 8 16 15 21 15 5 0 6 -7 3 -15z m-3134 -5 c0 -5 -4 -10 -10 -10 -5 0 -10
5 -10 10 0 6 5 10 10 10 6 0 10 -4 10 -10z m2525 -45 c48 -48 47 -77 -5 -106
-22 -13 -40 -26 -40 -31 0 -17 -23 -7 -66 28 -56 46 -57 72 -7 113 49 40 74
39 118 -4z m313 -7 c56 -30 57 -63 5 -113 -39 -36 -76 -45 -90 -22 -4 8 -20
22 -35 32 -16 9 -28 26 -28 38 0 23 27 57 45 57 7 0 18 7 25 15 17 20 27 19
78 -7z m238 8 c6 -15 -12 -56 -24 -56 -39 1 -40 70 -1 70 11 0 22 -6 25 -14z
m1299 -16 c-5 -8 -11 -8 -17 -2 -6 6 -7 16 -3 22 5 8 11 8 17 2 6 -6 7 -16 3
-22z m-4364 -16 c17 -8 37 -13 46 -10 29 11 59 -41 39 -69 -20 -27 -142 -59
-231 -59 -80 -1 -80 -1 -77 24 6 37 21 51 42 40 31 -16 40 -12 91 40 27 28 51
50 54 50 3 0 20 -7 36 -16z m4909 -24 c0 -5 -2 -10 -4 -10 -3 0 -8 5 -11 10
-3 6 -1 10 4 10 6 0 11 -4 11 -10z m-5201 -44 c12 -18 21 -45 21 -59 0 -22 -8
-29 -55 -46 -80 -30 -87 -29 -79 17 7 37 27 85 46 110 18 22 46 13 67 -22z
m4299 28 c19 -5 22 -13 22 -51 0 -24 -5 -53 -10 -64 -12 -22 -59 -26 -79 -6
-8 6 -11 7 -8 1 3 -6 0 -11 -8 -11 -8 0 -12 4 -9 9 3 4 -9 5 -26 2 -26 -6 -30
-4 -30 14 0 29 17 36 45 18 22 -14 25 -14 39 0 19 18 21 41 5 46 -18 6 0 48
19 48 9 0 27 -3 40 -6z m341 -21 c9 -17 10 -17 28 0 26 22 40 22 48 -3 10 -30
-1 -39 -40 -30 -37 8 -65 26 -65 41 0 15 19 10 29 -8z m-2284 -54 c4 -12 -4
-31 -22 -54 -29 -37 -39 -41 -63 -25 -12 7 -10 13 13 34 20 19 27 35 27 62 0
36 0 37 20 19 11 -10 22 -26 25 -36z m1090 -8 c6 -11 -33 -26 -43 -16 -4 3 0
10 8 15 19 12 27 12 35 1z m526 -21 c39 -39 37 -78 -6 -100 -16 -8 -36 -23
-43 -32 -14 -19 -42 -24 -42 -9 0 5 -15 15 -34 22 -33 12 -34 13 -22 46 17 50
65 103 94 103 13 0 37 -13 53 -30z m1196 -22 c-3 -7 -5 -2 -5 12 0 14 2 19 5
13 2 -7 2 -19 0 -25z m-1493 -37 c3 -5 -1 -14 -9 -21 -12 -10 -21 -10 -45 0
-16 7 -27 16 -24 21 7 12 71 12 78 0z m1051 -51 c3 -5 3 -15 -1 -21 -6 -11
-23 6 -24 24 0 10 18 9 25 -3z m-622 -48 c33 -5 45 -26 27 -47 -19 -23 -43
-19 -37 5 3 11 1 20 -3 20 -22 0 -40 -14 -40 -30 0 -18 -19 -30 -46 -30 -21 0
-17 15 14 60 18 26 32 37 42 33 8 -3 28 -8 43 -11z m528 -24 c15 -28 5 -21
-21 15 -15 20 -17 27 -6 18 9 -8 22 -23 27 -33z m-1186 2 c3 -5 -1 -10 -10
-10 -9 0 -13 5 -10 10 3 6 8 10 10 10 2 0 7 -4 10 -10z m1825 -32 c37 -56 26
-98 -25 -98 -31 0 -43 20 -20 36 12 9 16 23 13 48 -5 41 10 47 32 14z m-604
-34 c14 -32 14 -39 1 -51 -19 -19 -87 -27 -87 -10 0 7 10 17 23 22 12 6 26 24
32 43 5 17 11 32 13 32 1 0 10 -16 18 -36z m-2466 -43 c0 -24 -26 -35 -34 -15
-10 26 -7 34 14 34 13 0 20 -7 20 -19z m128 -3 c17 -17 15 -74 -4 -92 -17 -17
-59 -21 -68 -7 -9 14 4 41 20 41 10 0 13 7 8 24 -10 41 17 61 44 34z m1397
-26 c11 -29 -13 -37 -34 -11 -10 13 -17 27 -15 31 7 11 42 -3 49 -20z m-1109
-9 c13 -14 27 -36 30 -49 7 -28 -19 -79 -52 -101 -24 -16 -28 -15 -61 2 -19
11 -38 25 -40 32 -3 7 -11 13 -19 13 -9 0 -14 12 -14 36 0 36 18 64 42 64 7 1
24 7 38 15 36 20 48 18 76 -12z m1694 17 c0 -5 -5 -10 -11 -10 -5 0 -7 5 -4
10 3 6 8 10 11 10 2 0 4 -4 4 -10z m-2770 -20 c0 -5 -8 -10 -17 -10 -15 0 -16
2 -3 10 19 12 20 12 20 0z m1866 -25 c8 -31 -1 -55 -20 -55 -13 0 -28 64 -17
75 12 13 31 2 37 -20z m-469 -24 c29 -34 31 -90 3 -114 -29 -24 -65 -21 -84 7
-8 14 -25 26 -37 28 -59 8 -44 81 21 103 44 15 68 9 97 -24z m1058 13 c13 -14
32 -24 42 -22 12 2 19 -4 21 -18 4 -26 -22 -48 -45 -40 -15 6 -15 9 -3 17 12
9 11 9 -5 4 -39 -14 -48 -10 -57 24 -17 62 6 79 47 35z m660 5 c4 -6 13 -8 20
-5 18 6 35 -14 35 -41 0 -19 -5 -23 -29 -23 -36 0 -61 -23 -61 -56 0 -13 -4
-24 -10 -24 -5 0 -10 9 -10 20 0 11 -4 20 -9 20 -10 0 -23 84 -15 105 7 17 69
21 79 4z m165 4 c0 -5 -5 -15 -10 -23 -7 -12 -9 -10 -7 8 1 19 17 33 17 15z
m-2726 -27 c15 -13 26 -27 26 -31 0 -4 11 -16 25 -27 33 -26 32 -53 -5 -75
-16 -9 -30 -21 -30 -25 0 -18 -22 -5 -69 41 -28 27 -51 58 -51 69 0 19 33 55
60 65 8 3 16 6 17 6 1 1 13 -10 27 -23z m1481 -99 c17 -8 48 -18 69 -22 32 -6
40 -4 53 15 19 27 29 17 38 -37 7 -45 3 -49 -47 -44 -20 2 -43 -35 -28 -44 29
-18 4 -45 -53 -59 -26 -6 -28 -5 -25 20 4 37 -13 40 -50 9 -41 -34 -62 -33
-62 5 0 17 0 33 -1 37 0 4 19 12 43 18 41 9 43 12 43 45 0 25 -8 43 -27 62
-16 14 -28 34 -28 45 1 15 4 14 23 -8 12 -15 36 -34 52 -42z m664 29 c35 6 39
4 50 -24 14 -33 12 -63 -4 -69 -5 -1 -31 17 -58 41 -36 34 -45 48 -40 62 7 18
8 18 11 1 3 -14 10 -16 41 -11z m-305 -29 c10 -12 22 -23 27 -23 5 -1 14 -2
20 -3 7 -1 9 -13 5 -36 -9 -45 19 -75 70 -75 41 0 42 -17 3 -37 -33 -17 -99
-17 -99 0 0 7 -16 19 -35 26 -39 14 -42 13 -96 -36 -23 -21 -27 -22 -39 -8 -7
8 -10 18 -7 21 3 3 1 19 -3 35 -8 26 -6 29 16 29 13 0 24 5 24 11 0 6 11 8 28
5 38 -9 71 16 56 41 -6 10 -22 19 -36 21 -20 2 -48 35 -48 56 0 2 21 1 48 -1
31 -3 53 -12 66 -26z m233 -30 c3 -37 -1 -51 -17 -67 -29 -29 -36 -25 -36 18
1 20 -3 47 -7 60 -7 18 -4 24 15 31 35 14 40 9 45 -42z m-1722 6 c49 -54 46
-79 -11 -104 -43 -18 -48 -18 -64 -4 -25 22 -54 91 -46 110 6 17 40 33 69 34
10 1 34 -16 52 -36z m321 -15 c23 -18 45 -40 47 -48 7 -28 -12 -59 -54 -85
-40 -26 -41 -26 -63 -8 -11 11 -33 27 -48 36 -44 28 -38 69 15 106 23 17 46
30 51 31 5 0 28 -15 52 -32z m-5517 16 c52 -11 37 -54 -19 -54 -21 0 -45 34
-35 50 7 12 12 12 54 4z m-573 -21 c14 -14 16 -32 12 -119 -4 -94 -7 -105 -29
-124 l-24 -20 23 -19 c19 -17 22 -29 22 -91 l0 -72 -37 6 c-52 9 -72 9 -113 2
-19 -4 -42 -2 -50 3 -12 9 -11 16 7 55 12 25 34 52 47 61 45 29 46 95 3 95
-36 1 -65 33 -72 81 -6 40 -4 48 22 73 27 28 136 86 160 86 6 0 19 -8 29 -17z
m797 -17 c10 -30 -2 -47 -33 -45 -37 3 -50 -3 -70 -30 -39 -55 8 -116 63 -82
28 18 36 3 27 -54 -5 -27 -6 -69 -3 -91 3 -23 -1 -59 -8 -80 -7 -22 -12 -42
-11 -46 1 -3 -5 -11 -13 -18 -11 -9 -19 -8 -36 3 -17 13 -26 13 -43 4 -11 -7
-24 -16 -28 -21 -8 -12 -108 -10 -120 2 -5 5 1 14 14 21 13 6 34 28 48 48 14
21 39 52 56 71 l32 35 -22 65 c-20 57 -27 67 -67 89 -57 33 -56 31 -23 43 16
6 43 24 59 39 35 33 133 83 154 79 8 -2 19 -16 24 -32z m125 -13 c-2 -17 -10
-29 -20 -31 -14 -3 -18 3 -18 27 0 25 4 31 21 31 16 0 20 -5 17 -27z m-1333
-33 c9 -27 14 -62 12 -77 -10 -62 -28 -113 -41 -113 -7 0 -18 -11 -24 -24 -9
-21 -6 -33 20 -81 16 -31 27 -59 23 -63 -9 -10 -135 -9 -135 0 0 5 -7 8 -15 8
-8 0 -15 7 -15 15 0 8 6 15 14 15 26 0 23 25 -6 42 -24 15 -28 24 -29 65 -2
101 2 126 24 144 18 14 23 15 25 3 2 -8 8 -14 13 -14 4 0 4 11 -3 24 -8 20 -7
28 5 40 9 9 20 16 25 16 4 0 19 11 32 25 36 39 56 32 75 -25z m655 35 c0 -8
-6 -15 -14 -15 -17 0 -28 14 -19 24 12 12 33 6 33 -9z m126 -75 c-1 -97 -12
-118 -48 -99 -19 10 -25 39 -8 39 18 0 11 31 -12 49 -28 23 -18 65 20 85 48
27 50 23 48 -74z m7530 15 c-3 -9 -10 -13 -16 -10 -12 7 -13 48 -3 59 11 11
27 -30 19 -49z m642 0 c-2 -13 -12 -21 -30 -23 -16 -2 -28 1 -28 7 0 6 4 11 9
11 5 0 13 14 16 32 7 30 8 31 22 13 7 -11 12 -29 11 -40z m-929 19 c7 -7 6
-65 -2 -96 -8 -30 -28 -39 -85 -40 -78 -1 -105 25 -60 56 22 16 48 22 35 9 -9
-8 24 -32 46 -33 21 0 22 16 3 36 -8 8 -19 14 -25 14 -17 0 -13 15 10 44 17
22 27 26 48 21 14 -4 28 -9 30 -11z m397 5 c10 -17 -13 -36 -27 -22 -12 12 -4
33 11 33 5 0 12 -5 16 -11z m204 -9 c0 -5 -4 -10 -10 -10 -5 0 -10 5 -10 10 0
6 5 10 10 10 6 0 10 -4 10 -10z m-1462 -106 c4 -26 -43 -74 -73 -74 -35 0 -31
16 13 61 39 41 55 44 60 13z m514 9 c4 -2 13 -22 20 -45 11 -36 10 -42 -7 -54
-26 -19 -39 -13 -43 20 -3 24 -7 27 -35 24 -27 -2 -32 -7 -32 -28 0 -17 6 -26
20 -29 26 -4 37 -22 23 -38 -8 -10 -18 -8 -49 10 -44 25 -46 32 -21 79 34 66
78 87 124 61z m-328 -61 c14 -6 26 -18 26 -27 0 -20 -4 -19 -53 12 -23 15 -43
28 -45 29 -1 1 3 14 9 30 l11 29 13 -31 c8 -16 25 -35 39 -42z m-6414 4 c0 -2
-9 -6 -20 -9 -11 -3 -20 -1 -20 4 0 5 9 9 20 9 11 0 20 -2 20 -4z m-275 -37
c14 -42 -24 -83 -39 -43 -8 20 -8 59 0 67 10 10 33 -4 39 -24z m7681 13 c18
-11 21 -46 6 -57 -10 -8 -9 -11 9 -12 12 -1 27 -7 33 -13 15 -15 -11 -31 -44
-28 -22 3 -25 8 -25 41 0 26 -6 42 -17 48 -10 6 -18 14 -18 19 0 12 40 13 56
2z m-2947 -61 c1 -39 -13 -13 -15 27 -2 28 0 32 6 17 5 -11 9 -31 9 -44z
m-4389 26 c0 -31 -62 -97 -90 -97 -30 0 -26 36 5 44 13 3 32 20 40 36 16 30
45 41 45 17z m570 -2 c0 -8 -7 -15 -15 -15 -9 0 -12 6 -9 15 4 8 10 15 15 15
5 0 9 -7 9 -15z m5564 -41 c20 -8 21 -54 1 -54 -17 0 -39 36 -30 50 7 12 8 12
29 4z m709 -3 c11 -2 8 -39 -4 -46 -6 -4 -19 2 -30 14 -24 26 -27 26 -48 3 -9
-11 -27 -24 -40 -31 l-23 -13 18 30 c25 44 55 54 127 43z m-7078 -84 c24 -19
13 -73 -13 -61 -9 4 -29 9 -44 12 -32 5 -34 10 -12 40 17 25 42 28 69 9z
m7505 -48 c0 -12 -7 -19 -19 -19 -11 0 -27 -7 -35 -16 -15 -14 -16 -13 -16 10
0 15 6 26 14 26 7 0 19 7 26 15 15 18 30 11 30 -16z m-257 -11 c5 -18 -3 -48
-14 -48 -5 0 -9 14 -9 30 0 30 15 41 23 18z m387 3 c0 -5 -7 -14 -15 -21 -13
-10 -15 -9 -15 9 0 12 6 21 15 21 8 0 15 -4 15 -9z m-73 -79 c13 -31 13 -31
-12 -20 -17 7 -25 19 -25 35 0 33 21 25 37 -15z m-1027 13 c10 -12 10 -15 -4
-15 -9 0 -16 7 -16 15 0 8 2 15 4 15 2 0 9 -7 16 -15z m426 -11 c29 -30 29
-31 3 -44 -44 -24 -60 -21 -75 16 -8 19 -12 39 -9 44 12 19 58 10 81 -16z
m1218 -7 c32 -41 33 -66 5 -101 -16 -21 -28 -26 -53 -24 -28 3 -33 8 -50 62
l-19 59 22 19 c35 28 66 23 95 -15z m-2373 9 c-13 -7 -30 -27 -37 -45 -7 -17
-20 -31 -28 -31 -17 0 -32 38 -19 50 16 17 68 40 88 40 18 -1 18 -2 -4 -14z
m-6645 -11 c4 -8 12 -15 19 -15 8 0 17 -5 21 -12 4 -6 3 -8 -3 -5 -6 4 -25
-11 -42 -33 l-32 -40 23 -10 c31 -12 58 -35 58 -47 0 -5 9 -18 20 -28 24 -22
26 -73 5 -101 -19 -25 -19 -34 0 -34 10 0 15 -10 15 -29 0 -16 4 -31 9 -33 5
-1 11 -56 12 -122 3 -113 3 -119 -19 -137 -16 -12 -32 -16 -52 -12 -25 4 -30
2 -35 -19 -3 -13 -1 -36 4 -52 6 -15 11 -28 11 -30 0 -10 -60 -66 -71 -66 -8
0 -29 9 -47 20 -18 11 -40 20 -49 20 -16 0 -53 27 -53 39 0 13 96 9 117 -5 26
-16 53 -18 53 -4 0 13 -35 49 -68 70 -28 18 -30 42 -12 171 10 71 10 116 2
184 -6 50 -7 108 -3 131 4 23 4 72 -1 110 -11 98 -8 104 58 104 39 0 56 -4 60
-15z m476 -22 c9 -11 9 -19 0 -34 -14 -23 -16 -81 -2 -95 5 -5 11 -78 12 -162
3 -134 1 -152 -13 -152 -9 0 -29 -10 -44 -21 -24 -19 -26 -27 -21 -63 3 -23 8
-63 10 -91 4 -54 21 -105 34 -105 4 0 13 5 19 11 15 15 33 3 33 -20 0 -18 -28
-92 -30 -81 -1 3 -3 13 -5 24 -9 46 -59 45 -68 -2 -3 -15 -12 -35 -19 -45 -11
-15 -18 -16 -41 -8 -16 6 -41 11 -56 11 -32 0 -45 13 -55 52 -3 14 -9 34 -13
44 -4 12 5 7 28 -14 44 -41 73 -39 77 5 2 23 -5 43 -24 68 l-27 36 14 97 c7
53 12 143 11 199 -2 73 0 103 9 109 7 4 15 2 17 -4 7 -23 40 -33 62 -20 27 17
28 73 0 88 -21 11 -60 -2 -60 -20 0 -6 -4 -10 -10 -10 -18 0 -22 66 -5 99 9
18 17 51 19 74 3 39 5 42 37 47 49 7 96 0 111 -17z m7528 -3 c0 -22 -25 -18
-34 6 -3 9 1 14 14 14 13 0 20 -7 20 -20z m-1282 -12 c-2 -13 -7 -23 -13 -23
-5 0 -11 10 -13 23 -2 15 2 22 13 22 11 0 15 -7 13 -22z m717 12 c3 -5 2 -10
-4 -10 -5 0 -13 5 -16 10 -3 6 -2 10 4 10 5 0 13 -4 16 -10z m-130 -40 c18
-28 32 -40 49 -40 13 0 29 -6 35 -14 7 -8 21 -12 31 -9 11 3 20 0 20 -6 0 -6
9 -2 21 10 23 23 33 18 43 -22 9 -40 -12 -50 -106 -52 -89 -2 -88 -2 -73 50 7
22 5 25 -55 71 -21 17 -22 22 -11 36 7 9 15 16 17 16 2 0 15 -18 29 -40z
m-6127 14 c17 -3 22 -11 22 -37 0 -17 7 -66 16 -107 27 -130 33 -172 38 -271
3 -53 10 -118 16 -144 10 -44 9 -78 -6 -171 -4 -31 -6 -31 -48 -27 -39 5 -45
3 -66 -27 -16 -22 -26 -28 -33 -21 -6 6 -20 11 -32 11 -11 0 -25 10 -30 22 -6
12 -19 26 -29 32 -38 21 -65 61 -66 94 0 34 29 72 55 72 8 0 15 6 15 14 0 21
-17 29 -27 12 -7 -12 -11 -12 -26 -1 -15 10 -18 27 -17 96 0 131 6 151 42 141
19 -5 21 -2 16 34 -4 21 -9 46 -13 56 -4 11 0 18 14 23 12 3 21 15 21 26 0 10
6 19 14 19 11 0 13 -9 10 -32 -5 -42 24 -70 69 -66 48 5 57 42 23 96 -23 37
-29 40 -50 32 -21 -7 -25 -5 -28 15 -5 25 8 45 29 45 7 0 13 7 13 16 0 11 -5
14 -16 10 -9 -3 -23 -6 -32 -7 -11 0 -12 -2 -4 -6 6 -2 12 -9 12 -14 0 -6 -9
-5 -22 2 -18 10 -24 8 -39 -12 -48 -65 -48 -65 -59 -49 -5 8 -8 20 -6 26 3 6
0 30 -5 53 -5 23 -7 46 -4 51 5 8 187 4 233 -6z m6412 -9 c6 -7 33 -17 58 -21
26 -3 52 -13 59 -21 6 -8 20 -15 32 -16 16 -1 21 -8 21 -32 0 -16 3 -40 6 -51
5 -19 1 -22 -38 -26 -48 -5 -120 13 -126 31 -3 8 8 11 33 9 23 -1 40 3 45 12
12 18 13 40 3 39 -36 -6 -64 3 -72 24 -5 12 -18 29 -30 37 -22 15 -28 30 -12
30 5 0 14 -7 21 -15z m863 -47 c6 -37 -2 -50 -30 -54 -7 -1 -23 -14 -36 -28
-25 -26 -37 -25 -37 4 0 9 -9 27 -20 40 -11 13 -20 28 -20 34 0 8 2 8 8 0 12
-18 52 -36 68 -30 8 3 14 1 14 -4 0 -24 19 -7 26 23 9 35 9 33 -2 62 -6 18 -5
18 8 5 9 -8 18 -32 21 -52z m-392 37 c13 -9 7 -85 -7 -85 -6 0 -21 9 -34 20
-26 23 -59 35 -68 25 -4 -4 -7 -23 -7 -43 0 -30 -5 -39 -28 -50 -36 -17 -42
-11 -29 26 8 23 7 37 -4 58 -19 35 -11 58 16 49 12 -4 20 -2 20 5 0 12 120 7
141 -5z m1039 -5 c0 -5 -2 -10 -4 -10 -3 0 -8 5 -11 10 -3 6 -1 10 4 10 6 0
11 -4 11 -10z m-7095 -70 c80 -13 74 -12 142 -4 37 5 64 2 92 -9 36 -15 45
-15 82 -2 63 23 158 -7 160 -50 1 -20 1 -20 6 0 10 39 34 56 70 49 21 -4 44
-1 58 6 18 10 37 10 75 3 36 -7 61 -7 80 0 25 9 33 7 66 -18 21 -16 45 -30 53
-32 8 -1 17 -6 20 -11 3 -5 17 -11 30 -15 18 -4 21 -3 12 6 -19 19 -13 34 19
47 34 14 35 14 45 -18 5 -19 2 -25 -14 -29 -22 -6 -26 -28 -14 -71 7 -29 23
-10 23 29 0 22 6 28 32 33 17 3 33 4 36 1 3 -3 4 -30 3 -61 -1 -46 3 -61 20
-80 20 -21 20 -24 5 -76 -23 -79 -49 -215 -54 -280 -2 -32 -6 -58 -10 -58 -3
0 -16 10 -28 21 -14 13 -29 19 -40 15 -15 -6 -15 -8 0 -29 62 -88 88 -163 56
-164 -23 0 -38 15 -45 48 -7 32 -25 38 -45 14 -19 -23 -43 0 -29 27 23 43 -14
125 -45 99 -7 -6 -27 -11 -42 -9 -16 1 -39 -4 -51 -10 -18 -10 -27 -10 -43 0
-16 11 -22 10 -36 -4 -14 -14 -15 -20 -5 -32 10 -12 9 -20 -4 -40 -15 -23 -15
-25 4 -35 29 -16 61 -14 61 5 0 26 25 10 28 -18 4 -30 -42 -69 -80 -67 -36 1
-121 51 -124 74 -2 11 -10 24 -18 31 -19 14 -36 57 -36 93 0 30 -18 41 -71 41
-35 0 -42 -10 -22 -32 16 -18 16 -20 -3 -38 -26 -27 -92 -17 -104 15 -10 27
-28 35 -55 24 -11 -4 -39 -8 -62 -8 -49 -1 -54 -7 -69 -81 -8 -41 -15 -56 -30
-58 -24 -5 -64 -41 -64 -58 0 -7 -20 -37 -43 -66 -24 -30 -47 -66 -51 -81 -4
-18 -13 -27 -26 -27 -20 0 -90 -69 -102 -101 -10 -26 -30 -24 -58 6 -33 35
-43 31 -35 -15 6 -36 5 -40 -14 -40 -25 0 -27 5 -35 83 -6 55 -5 58 20 69 25
12 26 15 20 69 -4 36 -3 60 4 64 5 3 10 20 10 37 0 60 63 94 76 41 4 -15 2
-34 -5 -45 -8 -13 -10 -39 -5 -79 6 -56 8 -59 24 -44 10 9 18 27 18 41 0 32
15 49 37 40 13 -5 15 -14 9 -51 -7 -53 5 -59 35 -16 12 17 21 45 21 67 0 20 7
45 16 55 9 10 14 25 11 32 -4 12 -14 13 -51 4 -34 -8 -49 -7 -61 3 -19 16 -19
24 1 66 9 19 14 37 12 40 -3 2 -28 0 -55 -6 -45 -10 -54 -9 -87 11 -40 23 -40
18 11 82 28 35 29 63 3 70 -29 8 -25 28 5 23 20 -4 74 14 94 31 3 2 -10 19
-29 38 -32 33 -33 36 -27 95 4 53 3 63 -14 73 -10 6 -19 18 -19 25 0 7 -9 30
-20 52 l-20 39 22 16 23 15 -25 45 c-24 44 -24 45 -5 60 22 17 153 14 280 -5z
m6007 -82 c-12 -12 -35 -1 -27 12 3 5 13 6 21 3 10 -4 12 -9 6 -15z m-7183
-21 c11 -21 8 -27 -26 -65 -44 -48 -73 -53 -97 -17 -16 25 -22 74 -8 76 30 3
66 11 85 19 32 13 32 12 46 -13z m2311 -6 c0 -6 -4 -13 -10 -16 -5 -3 -10 1
-10 9 0 9 5 16 10 16 6 0 10 -4 10 -9z m3255 -16 c26 -11 209 -20 348 -17 66
2 117 2 140 1 12 -1 50 0 85 1 53 2 67 -1 86 -19 22 -21 66 -29 66 -12 0 13
30 22 51 16 38 -12 16 -61 -43 -99 -18 -12 -28 -28 -30 -49 -4 -44 -25 -46
-34 -2 -4 26 -11 35 -23 33 -8 -2 -16 -12 -17 -23 -3 -74 -3 -75 -41 -90 -68
-29 -76 -28 -127 11 -48 36 -48 37 -44 85 5 54 5 54 -23 39 -12 -7 -19 -21
-19 -40 0 -20 -5 -30 -15 -30 -17 0 -35 30 -35 58 0 17 -18 32 -38 32 -4 0 -5
-22 -4 -50 3 -44 1 -52 -25 -76 -46 -43 -56 -45 -104 -21 -54 26 -68 43 -69
81 0 39 -12 26 -26 -29 -9 -38 -8 -47 6 -60 9 -8 20 -15 25 -15 5 0 17 -7 27
-17 26 -23 23 -73 -7 -113 -14 -18 -23 -36 -20 -38 2 -2 20 6 39 18 25 15 39
33 47 61 16 52 34 51 44 -3 6 -28 79 -102 95 -96 8 2 -4 23 -34 56 -25 29 -46
58 -46 65 0 24 30 55 78 80 47 25 48 25 73 6 13 -10 29 -19 35 -19 19 0 37
-58 31 -95 -7 -45 14 -48 40 -5 22 37 39 38 48 3 6 -26 21 -43 38 -43 4 0 5
11 1 25 -25 101 63 149 153 83 72 -55 68 -112 -12 -152 -50 -26 -49 -25 -43
-32 3 -3 25 0 47 7 51 15 65 5 66 -49 1 -20 5 -45 9 -54 6 -14 0 -22 -25 -35
-18 -10 -42 -27 -54 -38 -11 -11 -33 -26 -49 -33 -34 -15 -31 -42 5 -59 45
-22 55 -40 33 -64 -10 -11 -24 -33 -31 -47 l-11 -27 -1 26 c-1 29 -18 49 -43
49 -15 0 -16 -7 -11 -48 4 -36 2 -51 -10 -61 -19 -15 -88 -51 -99 -51 -18 0
-98 84 -98 102 0 10 8 31 17 45 l17 26 -29 -7 c-40 -10 -43 -14 -54 -69 l-8
-47 49 -42 c46 -38 49 -44 46 -77 -3 -20 -8 -44 -13 -55 -15 -33 27 -14 44 21
20 42 47 43 56 3 10 -45 35 -39 35 9 0 50 46 101 91 101 39 0 91 -31 109 -64
29 -56 -25 -124 -100 -126 -24 0 -27 -5 -44 -88 -19 -96 -15 -148 14 -182 23
-27 46 -25 66 5 21 32 30 32 48 -4 17 -32 15 -37 -42 -65 -22 -11 -38 -14 -50
-8 -9 5 -35 13 -56 17 -22 3 -49 13 -60 21 -24 16 -52 11 -128 -23 -38 -18
-58 -33 -60 -46 -5 -32 -22 -29 -39 6 -9 17 -24 37 -35 42 -11 6 -33 20 -49
31 -20 14 -37 19 -50 14 -20 -7 -24 -4 -121 75 -22 17 -26 31 -32 104 -7 80
-9 85 -37 102 -16 10 -40 18 -52 18 -12 1 -26 8 -31 17 -8 14 -10 12 -16 -10
-8 -33 -35 -34 -65 -3 -30 32 -15 75 29 83 36 8 37 17 9 68 l-20 38 35 32 c38
35 54 79 38 99 -6 7 -30 18 -55 25 -25 8 -57 28 -76 48 -39 41 -48 42 -84 8
-26 -24 -29 -25 -46 -10 -11 10 -22 39 -26 69 -13 94 -16 122 -16 137 1 8 1
50 1 93 -1 79 8 108 42 141 16 15 18 26 12 60 -3 22 -10 43 -15 46 -16 11 -28
62 -27 117 2 96 -6 92 181 91 103 -1 173 -5 192 -13z m1856 -34 c-9 -6 -7 -10
8 -14 24 -6 29 -27 6 -27 -21 0 -37 34 -23 48 7 7 14 9 17 6 3 -3 0 -9 -8 -13z
m-533 -17 c34 -24 28 -84 -10 -102 -16 -7 -28 -17 -28 -22 0 -5 -7 -16 -16
-24 -14 -14 -18 -13 -50 12 -30 24 -34 33 -34 73 l0 46 53 15 c28 9 54 16 57
17 3 0 16 -6 28 -15z m202 -4 c0 -5 -5 -10 -11 -10 -5 0 -7 5 -4 10 3 6 8 10
11 10 2 0 4 -4 4 -10z m-549 -19 c21 -19 69 -34 69 -21 0 11 49 30 55 20 6
-10 -64 -70 -82 -70 -7 0 -16 6 -20 14 -4 7 -21 17 -37 23 -36 11 -56 53 -25
53 11 0 29 -9 40 -19z m644 10 c3 -5 1 -13 -5 -16 -15 -9 -43 3 -35 15 8 13
32 13 40 1z m395 -125 c0 -3 -13 -6 -29 -6 -23 0 -30 5 -34 27 -3 16 -3 31 0
36 4 7 63 -46 63 -57z m-1125 4 c3 -5 -1 -10 -9 -10 -9 0 -16 5 -16 10 0 6 4
10 9 10 6 0 13 -4 16 -10z m622 -10 c13 0 -3 -34 -24 -55 -37 -33 -57 -33 -49
1 4 15 3 23 -3 20 -5 -3 -12 2 -15 11 -11 27 19 43 57 32 18 -5 33 -9 34 -9z
m-579 -28 c5 -17 -23 -15 -38 3 -11 13 -9 15 11 12 12 -2 25 -9 27 -15z
m-5734 -66 c3 -27 10 -54 16 -60 5 -5 10 -34 10 -63 0 -29 6 -62 13 -73 10
-17 9 -22 -3 -30 -24 -15 -42 -12 -38 8 1 10 -7 30 -19 45 -20 25 -21 36 -16
120 2 51 7 98 9 106 8 26 24 -3 28 -53z m-854 44 c0 -5 -4 -10 -10 -10 -5 0
-10 5 -10 10 0 6 5 10 10 10 6 0 10 -4 10 -10z m7040 -10 c0 -13 -7 -20 -20
-20 -22 0 -23 1 -14 24 9 23 34 20 34 -4z m217 -27 c2 -6 -8 -13 -22 -15 -27
-6 -32 1 -13 20 14 14 30 11 35 -5z m631 -13 c12 -19 11 -20 -8 -8 -20 13 -27
28 -12 28 4 0 13 -9 20 -20z m-7748 -6 c0 -8 -1 -14 -2 -14 -61 -10 -78 -10
-78 -2 0 11 35 27 61 29 11 1 19 -5 19 -13z m7487 -36 c-3 -12 2 -23 14 -31
10 -6 19 -18 19 -25 0 -7 5 -10 10 -7 6 4 8 21 4 40 -7 36 13 56 47 48 17 -5
17 -7 4 -26 -8 -12 -15 -34 -15 -48 0 -15 -6 -29 -12 -32 -10 -3 -9 -9 3 -21
17 -18 89 -25 127 -11 17 6 22 4 22 -9 0 -9 -6 -16 -12 -15 -27 3 -37 -2 -32
-16 4 -11 0 -15 -16 -15 -13 0 -24 8 -27 20 -6 24 -23 16 -23 -11 0 -17 18
-25 45 -19 6 1 28 2 50 2 22 -1 47 6 56 14 15 13 18 13 31 0 13 -13 17 -12 31
5 20 23 47 25 47 4 0 -8 -4 -15 -10 -15 -5 0 -9 -6 -7 -12 1 -7 -8 -13 -19
-13 -12 0 -30 -11 -41 -23 -16 -21 -23 -23 -53 -15 -26 7 -43 5 -72 -9 -21
-10 -61 -20 -90 -22 -29 -2 -58 -5 -65 -5 -6 -1 -15 -10 -18 -21 -9 -28 -25
-25 -25 5 0 15 -18 48 -45 80 -48 60 -64 99 -48 123 16 27 33 25 33 -3 0 -36
34 -99 64 -119 21 -13 29 -14 46 -4 31 19 33 43 10 88 -14 27 -31 45 -50 51
-25 9 -29 15 -28 49 0 28 5 40 17 43 24 5 33 -3 28 -25z m-6959 -7 c4 -24 -22
-71 -38 -71 -14 0 -12 74 2 88 17 17 32 10 36 -17z m6640 -27 c-2 -29 -8 -40
-22 -42 -15 -3 -17 0 -11 14 4 11 10 34 13 52 6 47 24 25 20 -24z m642 36 c0
-23 -25 -27 -33 -6 -4 9 1 17 11 19 9 3 18 5 20 6 1 0 2 -8 2 -19z m-1220 -30
c0 -5 -7 -7 -15 -4 -8 4 -15 8 -15 10 0 2 7 4 15 4 8 0 15 -4 15 -10z m455 1
c-8 -13 47 -62 63 -56 7 2 12 -3 12 -14 0 -10 10 -25 22 -33 16 -11 22 -27 26
-71 2 -31 2 -64 -2 -73 -5 -14 -10 -13 -33 10 -27 27 -48 33 -58 16 -8 -13
-115 -64 -121 -58 -2 3 5 13 16 23 25 23 26 59 2 83 -27 27 -10 62 38 77 33
10 40 23 29 52 -12 32 -11 53 2 53 5 0 8 -4 4 -9z m-7028 -34 c6 -13 14 -48
18 -78 6 -47 4 -57 -14 -73 -20 -18 -22 -18 -68 1 -58 23 -64 48 -13 48 60 1
80 26 36 46 -29 14 -41 66 -17 72 35 10 48 6 58 -16z m6870 1 c7 -5 15 -19 19
-30 7 -24 -30 -68 -58 -68 -26 0 -22 -13 11 -31 27 -16 28 -20 24 -65 -3 -27
-14 -61 -25 -76 -20 -29 -53 -37 -61 -15 -4 9 -8 9 -23 -1 -38 -25 -46 -25
-74 7 -16 17 -38 31 -49 31 -12 0 -50 16 -87 35 -36 19 -69 35 -74 35 -4 0
-10 -9 -13 -21 -4 -15 3 -28 25 -47 55 -49 78 -74 72 -83 -6 -10 -30 1 -59 28
-11 11 -43 30 -72 44 -52 24 -66 45 -38 55 10 4 15 20 15 44 0 33 -4 40 -36
55 -36 17 -41 37 -11 43 10 2 29 -10 43 -27 15 -18 35 -31 49 -31 12 0 28 -7
35 -15 18 -21 63 -19 94 6 14 11 32 19 38 17 7 -3 21 6 31 18 17 23 44 23 58
1 4 -5 25 -11 48 -13 36 -2 42 0 47 22 6 24 4 41 -11 76 -11 27 49 32 82 6z
m1205 -10 c20 -23 13 -48 -12 -48 -11 0 -22 -4 -25 -10 -11 -17 -20 -11 -39
25 -19 34 -19 36 -1 49 22 16 54 9 77 -16z m-8226 8 c3 -8 0 -25 -7 -37 l-12
-23 -9 24 c-10 26 -4 50 12 50 6 0 13 -6 16 -14z m6599 4 c3 -5 1 -10 -4 -10
-6 0 -11 5 -11 10 0 6 2 10 4 10 3 0 8 -4 11 -10z m502 -40 c-2 -27 -3 -28
-14 -13 -9 12 -10 20 -2 30 16 19 18 17 16 -17z m1033 -131 c0 -14 -19 -29
-36 -29 -2 0 -4 16 -4 35 0 33 1 34 20 23 11 -7 20 -20 20 -29z m-6662 -44
c-3 -36 -3 -65 0 -65 3 0 18 12 33 26 28 27 69 27 69 -1 0 -24 -52 -57 -82
-53 -16 3 -28 1 -28 -3 0 -5 -9 -13 -20 -19 -32 -17 -62 20 -57 70 4 43 49
110 74 110 13 0 15 -10 11 -65z m6051 41 c20 -23 10 -71 -14 -71 -16 0 -21 8
-23 43 -3 45 13 57 37 28z m-6989 -71 c0 -16 -35 -21 -44 -6 -8 12 4 21 26 21
10 0 18 -7 18 -15z m6756 -50 c-4 -14 -13 -25 -21 -25 -19 0 -19 4 2 43 17 34
29 23 19 -18z m-7278 18 c-2 -11 -14 -19 -30 -21 -16 -2 -28 -11 -31 -23 -3
-10 -10 -19 -16 -19 -16 0 -13 25 4 40 8 6 14 15 13 18 -2 18 4 22 33 22 24 0
30 -4 27 -17z m462 -43 c0 -5 -4 -10 -10 -10 -5 0 -10 5 -10 10 0 6 5 10 10
10 6 0 10 -4 10 -10z m-1019 -15 c0 -5 -9 -11 -21 -13 -20 -3 -27 8 -13 22 10
9 34 3 34 -9z m5949 -70 c0 -8 -7 -15 -15 -15 -8 0 -15 7 -15 15 0 8 7 15 15
15 8 0 15 -7 15 -15z m-62 -25 c-7 -11 -16 -16 -21 -11 -12 12 0 31 19 31 12
0 12 -3 2 -20z m-4053 -10 c10 -16 -5 -49 -27 -61 -17 -9 -24 -8 -34 6 -16 21
-8 44 20 55 28 12 34 12 41 0z m115 -62 c0 -30 -29 -20 -44 15 -7 17 -11 36
-9 40 8 13 53 -34 53 -55z m5155 16 c19 -20 16 -48 -6 -52 -9 -1 -27 6 -40 18
-24 20 -24 20 -5 35 25 19 31 19 51 -1z m-5659 -21 c1 -12 -7 -30 -17 -39 -11
-10 -19 -25 -19 -35 0 -10 -5 -21 -10 -24 -16 -10 -24 26 -11 47 6 10 9 23 6
28 -10 16 15 51 33 48 9 -2 18 -13 18 -25z m5534 1 c0 -8 -7 -14 -15 -14 -15
0 -21 21 -9 33 10 9 24 -2 24 -19z m-6550 -70 c0 -17 -22 -14 -28 4 -2 7 3 12
12 12 9 0 16 -7 16 -16z m1320 2 c0 -25 -34 -74 -57 -85 -16 -8 -23 -19 -23
-40 0 -44 17 -47 34 -7 29 69 71 9 45 -61 -11 -27 -27 -43 -66 -64 -72 -39
-82 -28 -80 84 2 76 4 82 24 85 12 2 29 15 38 29 19 28 65 72 78 73 4 0 7 -6
7 -14z m-1230 -35 c0 -5 -7 -11 -14 -14 -10 -4 -13 -1 -9 9 6 15 23 19 23 5z
m911 -21 c23 -13 25 -43 4 -60 -31 -26 -56 9 -39 54 7 19 9 19 35 6z m110 -56
c22 -24 24 -33 25 -142 1 -64 -1 -125 -3 -134 -10 -42 -79 -7 -118 60 -17 29
-18 36 -6 65 8 17 16 59 19 92 3 39 10 63 20 72 25 18 36 16 63 -13z m-913
-41 c4 -25 -16 -31 -36 -11 -20 20 -14 40 11 36 14 -2 23 -11 25 -25z m1804
-40 c18 -10 35 -19 37 -20 2 -2 -1 -14 -7 -27 -9 -21 -7 -27 17 -49 37 -33 51
-109 25 -138 -9 -10 -27 -19 -39 -19 -11 0 -26 -5 -32 -11 -7 -7 -19 -9 -28
-5 -12 4 -14 14 -10 39 5 24 2 37 -9 46 -13 11 -17 10 -22 -4 -4 -9 -2 -27 5
-41 9 -20 8 -26 -4 -31 -9 -3 -24 2 -34 11 -10 9 -25 16 -33 16 -27 0 -42 27
-30 55 9 20 16 23 44 19 24 -4 40 0 57 13 21 17 23 24 16 62 -5 30 -13 45 -26
48 -23 6 -25 23 -4 23 9 0 18 7 21 15 8 19 15 19 56 -2z m-2137 -12 c3 -5 1
-12 -5 -16 -5 -3 -10 1 -10 9 0 18 6 21 15 7z m2013 -75 c5 -40 -12 -54 -38
-31 -33 30 -25 69 15 63 14 -2 21 -12 23 -32z m362 -36 c0 -6 -5 -19 -12 -29
-9 -15 -8 -24 6 -46 21 -33 10 -49 -41 -60 -44 -9 -50 9 -19 54 14 20 26 46
26 57 0 12 3 24 7 27 10 11 33 8 33 -3z m-87 -20 c-3 -10 -11 -24 -18 -30 -22
-18 -29 8 -9 31 22 24 34 24 27 -1z m-2393 -25 c0 -14 -4 -25 -8 -25 -5 0 -14
11 -20 25 -10 22 -9 25 8 25 15 0 20 -7 20 -25z m1530 -4 c0 -11 -4 -23 -10
-26 -5 -3 -10 -29 -10 -57 0 -48 -1 -50 -17 -36 -10 9 -31 20 -48 25 -37 12
-42 46 -7 51 13 2 25 10 28 18 2 8 6 21 9 29 7 23 55 19 55 -4z m1345 -77 c21
-14 28 -14 42 -3 15 13 16 11 9 -13 -3 -15 -1 -48 5 -73 l11 -44 18 22 18 22
26 -24 c14 -13 35 -49 47 -80 20 -54 20 -58 4 -116 -21 -80 -46 -145 -55 -145
-22 0 -43 44 -42 88 1 53 -9 78 -28 67 -8 -5 -10 -20 -6 -43 10 -66 -28 -80
-88 -33 -40 32 -52 31 -131 -4 -33 -15 -45 -12 -45 12 0 23 40 80 67 94 12 7
29 29 37 50 20 50 38 49 61 -1 12 -26 25 -40 37 -40 28 0 23 46 -9 77 l-26 27
21 37 c27 46 28 69 5 69 -10 0 -25 4 -33 10 -12 7 -12 12 0 34 16 30 22 32 55
10z m-2864 -64 c-6 -18 -6 -30 -1 -30 5 0 9 -34 8 -75 -1 -63 -5 -76 -20 -81
-26 -8 -38 3 -38 37 0 17 -5 40 -11 51 -9 17 -7 24 17 43 26 21 27 23 11 39
-19 19 -10 48 21 65 22 13 28 -8 13 -49z m-467 0 c-7 -6 -24 22 -23 40 0 9 6
5 14 -10 7 -14 11 -27 9 -30z m6699 -18 c40 -38 37 -79 -10 -124 -28 -26 -47
-36 -74 -36 -32 -1 -38 3 -59 39 -18 34 -20 45 -11 65 6 13 15 24 21 24 5 0
21 18 35 40 23 37 28 39 48 29 12 -6 34 -23 50 -37z m-6581 -34 c6 -21 8 -41
5 -44 -10 -10 -37 16 -37 35 0 9 -11 25 -25 35 l-25 19 22 12 c28 15 43 0 60
-57z m2012 56 c9 -3 16 -12 16 -18 0 -7 11 -18 25 -24 14 -6 25 -16 25 -22 0
-18 23 -11 50 15 33 32 55 25 70 -21 9 -27 9 -42 0 -65 -10 -23 -10 -33 -1
-42 14 -14 14 -57 0 -57 -6 0 -20 11 -31 25 -11 14 -26 25 -34 25 -22 0 -115
50 -152 82 -18 15 -37 28 -42 28 -16 0 -12 20 11 51 21 29 34 34 63 23z
m-1344 -22 c0 -13 -12 -22 -22 -16 -10 6 -1 24 13 24 5 0 9 -4 9 -8z m1788 -4
c7 -7 12 -23 12 -36 0 -18 -5 -23 -21 -20 -27 4 -44 30 -36 52 7 19 28 21 45
4z m4407 2 c22 0 75 -57 75 -80 0 -33 -64 -90 -100 -90 -18 0 -33 6 -36 15 -4
8 -11 15 -16 15 -18 0 -37 34 -38 66 0 24 8 36 38 56 20 14 43 24 50 22 8 -2
20 -4 27 -4z m-4485 -15 c0 -8 -7 -15 -15 -15 -8 0 -15 7 -15 15 0 8 7 15 15
15 8 0 15 -7 15 -15z m609 -53 c-23 -42 -39 -39 -39 7 0 28 5 43 18 50 26 15
41 -23 21 -57z m4535 25 c11 -30 4 -42 -19 -34 -19 8 -21 71 -2 65 6 -3 16
-17 21 -31z m136 18 c0 -8 -4 -15 -10 -15 -5 0 -10 7 -10 15 0 8 5 15 10 15 6
0 10 -7 10 -15z m-5958 -14 c18 -26 90 -37 108 -17 7 9 16 16 21 16 10 0 74
-58 68 -62 -2 -2 -21 -12 -41 -22 -31 -15 -38 -25 -38 -48 0 -33 -25 -39 -35
-8 -7 21 -39 27 -50 10 -8 -12 -16 -12 -35 0 -12 7 -12 12 0 35 14 26 13 28
-18 54 -23 19 -31 32 -26 44 8 22 30 22 46 -2z m3858 -39 c0 -15 -2 -15 -10
-2 -13 20 -13 33 0 25 6 -3 10 -14 10 -23z m630 -21 c0 -9 9 -27 20 -41 26
-33 25 -55 -2 -67 -56 -24 -92 15 -70 75 6 15 13 35 16 44 7 22 36 13 36 -11z
m524 -43 c53 -35 79 -81 72 -125 -6 -35 -5 -37 9 -19 8 11 15 23 15 28 0 18
48 7 63 -14 l16 -23 0 31 c1 58 79 107 144 90 13 -3 36 -17 50 -30 33 -31 35
-73 5 -105 l-21 -24 23 -17 c20 -15 23 -26 22 -71 -1 -30 2 -61 7 -69 7 -10 2
-18 -19 -31 -28 -17 -28 -18 -14 -59 19 -55 12 -74 -38 -100 -35 -18 -45 -19
-69 -10 -36 15 -49 6 -49 -34 0 -40 -8 -49 -27 -31 -19 20 -30 19 -47 -2 -8
-10 -27 -33 -41 -50 -15 -18 -35 -33 -45 -33 -15 0 -18 -8 -18 -45 0 -24 -5
-50 -11 -57 -5 -7 -23 -29 -39 -48 l-30 -34 -130 -4 c-72 -2 -144 0 -159 5
-15 6 -37 7 -48 3 -11 -3 -57 -4 -103 -2 l-83 4 2 62 c0 33 -2 86 -6 116 l-8
55 22 -19 c11 -11 21 -25 21 -32 0 -15 37 -38 43 -27 11 20 -3 114 -23 153
-18 35 -23 62 -24 134 l-1 91 29 5 c20 3 36 16 50 39 18 31 18 39 6 115 -7 44
-17 91 -21 103 -7 19 -2 27 26 49 36 27 55 25 55 -6 0 -10 7 -26 16 -35 15
-14 19 -13 55 20 44 39 47 40 74 21 34 -23 90 -29 105 -10 11 12 93 61 108 64
1 0 17 -10 36 -22z m-3824 -7 c0 -17 -18 -21 -24 -6 -3 9 0 15 9 15 8 0 15 -4
15 -9z m933 -28 c3 -15 3 -32 1 -37 -4 -11 -134 -88 -166 -99 -59 -21 49 119
114 148 44 19 45 19 51 -12z m-1883 -23 c-19 -12 -35 3 -26 26 6 17 8 17 24 0
15 -15 15 -18 2 -26z m-1660 27 c0 -2 -13 -15 -28 -30 l-28 -27 -2 28 c-2 24
2 28 28 30 17 1 30 1 30 -1z m1798 -16 c27 -24 28 -31 1 -31 -29 0 -59 18 -59
35 0 21 30 18 58 -4z m486 -36 c-4 -8 -8 -15 -10 -15 -2 0 -4 7 -4 15 0 8 4
15 10 15 5 0 7 -7 4 -15z m-741 -24 c6 -24 0 -31 -19 -24 -18 7 -18 43 0 43 7
0 16 -9 19 -19z m691 -12 c-3 -5 -10 -7 -15 -3 -5 3 -7 10 -3 15 3 5 10 7 15
3 5 -3 7 -10 3 -15z m5186 -25 c13 -34 13 -44 -4 -44 -15 0 -26 21 -26 51 0
27 19 23 30 -7z m92 20 c3 -3 4 -14 1 -25 -8 -28 -33 -24 -33 6 0 23 18 34 32
19z m-5585 -20 c4 -13 -42 -28 -57 -19 -5 3 -6 12 -3 21 6 17 54 16 60 -2z
m-2117 -33 c0 -5 -7 -14 -15 -21 -12 -10 -15 -10 -15 2 0 8 3 18 7 21 9 10 23
9 23 -2z m7120 -41 c0 -11 -6 -20 -14 -20 -7 0 -16 9 -19 20 -4 15 0 20 14 20
12 0 19 -7 19 -20z m-4060 -20 c12 -16 32 -33 46 -36 14 -4 32 -20 41 -38 9
-17 28 -47 43 -66 32 -41 80 -135 80 -156 0 -9 -25 -26 -57 -40 -32 -14 -76
-34 -97 -45 l-39 -21 -32 33 c-18 19 -52 52 -74 74 -23 22 -44 48 -47 57 -3
10 -11 18 -17 18 -7 0 -36 11 -66 25 -59 28 -58 21 -32 139 17 79 48 86 92 21
35 -52 65 -54 61 -5 -2 29 2 38 25 52 40 23 49 22 73 -12z m2495 -35 c-1 -32
-7 -51 -25 -70 -13 -14 -27 -25 -32 -25 -14 0 -9 48 7 64 9 8 21 29 26 46 15
43 24 37 24 -15z m1625 0 c0 -7 -7 -15 -15 -19 -15 -5 -22 24 -9 37 9 9 24 -2
24 -18z m-6907 -40 c15 -14 27 -30 27 -35 0 -11 -31 -90 -35 -90 -2 0 -10 3
-19 6 -12 5 -13 10 -5 25 14 27 2 42 -30 34 -41 -10 -52 -23 -38 -45 14 -24 3
-37 -18 -20 -20 17 -19 35 6 87 13 28 27 43 39 43 10 0 22 5 25 10 9 15 18 12
48 -15z m7275 -7 c2 -9 -9 -28 -24 -43 -19 -19 -25 -22 -20 -8 4 10 10 31 13
46 6 29 26 32 31 5z m-407 -48 c-10 -45 -6 -68 15 -85 20 -16 35 -63 23 -71
-15 -9 -30 9 -38 48 -6 30 -10 33 -41 33 -29 0 -35 4 -33 20 1 10 -2 26 -7 35
-7 12 -3 16 16 18 36 3 64 20 64 39 0 9 2 14 5 11 3 -3 1 -25 -4 -48z m446
-12 c-3 -7 -5 -2 -5 12 0 14 2 19 5 13 2 -7 2 -19 0 -25z m-5555 -25 c3 -46 4
-48 36 -51 36 -4 41 -19 16 -57 -9 -13 -13 -33 -9 -44 5 -16 2 -18 -15 -14
-21 6 -100 98 -100 117 0 6 9 30 20 54 26 58 48 56 52 -5z m528 -23 c0 -21
-16 -26 -39 -11 -18 11 -5 31 20 31 12 0 19 -7 19 -20z m-2683 -5 c0 -8 -4
-15 -9 -15 -4 0 -8 7 -8 15 0 8 4 15 8 15 5 0 9 -7 9 -15z m5663 -12 c0 -25
-34 -73 -52 -73 -13 0 -9 75 4 88 22 22 48 14 48 -15z m75 16 c11 -17 -1 -21
-15 -4 -8 9 -8 15 -2 15 6 0 14 -5 17 -11z m-5018 -26 c-3 -3 -11 -2 -17 2 -9
6 -9 10 1 16 14 8 27 -7 16 -18z m1851 -16 c4 -20 -25 -34 -40 -19 -15 15 -1
44 19 40 10 -2 19 -11 21 -21z m-2248 3 c0 -5 -4 -10 -10 -10 -5 0 -10 5 -10
10 0 6 5 10 10 10 6 0 10 -4 10 -10z m1560 -52 c0 -42 -9 -55 -40 -59 -24 -4
-25 -8 -28 -74 -3 -93 -8 -112 -33 -126 -18 -9 -26 -6 -55 22 -27 26 -34 41
-34 70 0 21 -5 50 -12 64 -10 21 -9 29 5 42 18 18 23 12 29 -36 2 -14 9 -26
16 -29 17 -5 69 52 98 110 29 57 54 64 54 16z m5765 -12 c-10 -14 -22 -26 -27
-26 -10 0 -3 16 20 43 22 25 27 13 7 -17z m-7615 15 c0 -6 -4 -13 -10 -16 -5
-3 -10 -19 -10 -36 0 -18 -5 -29 -14 -29 -8 0 -16 -8 -19 -17 -4 -17 -5 -17
-12 1 -5 11 -3 26 4 37 7 13 8 19 1 19 -15 0 32 49 48 49 6 1 12 -3 12 -8z
m688 -9 c2 -7 -6 -12 -17 -12 -21 0 -27 11 -14 24 9 9 26 2 31 -12z m821 -6
c26 -27 25 -59 -2 -64 -28 -6 -47 17 -47 54 0 41 17 44 49 10z m541 -31 c65
-82 62 -114 -14 -191 -28 -27 -49 -58 -81 -116 -13 -23 -32 -30 -53 -18 -9 6
-38 19 -64 30 -42 17 -48 23 -48 50 0 19 13 47 35 75 19 25 32 52 29 59 -3 8
6 39 20 69 14 29 26 59 26 65 0 17 25 27 70 27 37 0 44 -5 80 -50z m4060 30
c35 -18 40 -30 8 -19 -13 4 -59 13 -103 20 l-80 11 73 2 c48 1 83 -4 102 -14z
m1301 -8 c-13 -13 -26 -3 -16 12 3 6 11 8 17 5 6 -4 6 -10 -1 -17z m-3921 -12
c0 -17 -2 -18 -25 -9 -13 5 -14 8 -3 15 19 13 28 11 28 -6z m-3810 -52 c0 -16
-14 -17 -41 -3 -16 9 -17 15 -8 31 10 20 11 20 30 3 10 -9 19 -23 19 -31z
m7514 -13 c-13 -13 -44 -2 -44 15 0 20 23 25 40 9 10 -10 11 -17 4 -24z
m-4122 -34 c12 -17 9 -36 -6 -36 -33 0 -93 70 -79 93 5 8 71 -37 85 -57z
m4172 19 c4 -10 -1 -15 -15 -15 -17 0 -18 2 -7 15 16 18 15 18 22 0z m-5714
-19 c18 -22 9 -60 -16 -64 -28 -4 -48 22 -40 53 7 28 36 34 56 11z m1880 -5
c15 -29 12 -146 -4 -186 -8 -19 -22 -35 -31 -35 -39 0 -125 95 -125 138 0 24
25 46 86 77 60 29 61 30 74 6z m-941 -18 c9 -16 13 -16 31 -5 19 11 25 11 40
-3 13 -12 28 -15 49 -10 23 5 32 2 40 -13 24 -46 -52 -76 -106 -42 -18 11 -33
24 -33 29 0 5 -12 9 -27 8 -24 -2 -29 2 -31 26 -4 31 21 38 37 10z m-151 -5
c7 -7 12 -22 12 -35 0 -12 8 -30 19 -40 24 -23 35 -104 17 -128 -7 -9 -21 -15
-32 -13 -16 3 -19 11 -17 57 2 45 0 51 -12 41 -8 -6 -17 -20 -20 -30 -8 -26
-32 -14 -38 20 -7 32 5 81 28 116 17 27 26 29 43 12z m529 -49 c6 -6 15 -24
18 -40 10 -45 28 -46 51 -4 14 24 53 26 68 3 8 -14 1 -26 -42 -69 -42 -41 -57
-50 -75 -45 -12 4 -44 9 -70 13 -57 7 -64 19 -47 76 25 85 28 90 58 82 15 -4
32 -11 39 -16z m4194 -2 c35 -14 51 -64 33 -99 -25 -47 -114 -63 -153 -27 -19
18 -21 27 -15 67 3 26 11 52 16 59 19 23 64 23 119 0z m-7108 -11 c3 -8 -3
-22 -14 -32 -18 -16 -19 -16 -19 8 0 37 22 53 33 24z m7644 -18 c-3 -7 -5 -2
-5 12 0 14 2 19 5 13 2 -7 2 -19 0 -25z m-4977 -54 c0 -8 -4 -12 -10 -9 -5 3
-10 10 -10 16 0 5 5 9 10 9 6 0 10 -7 10 -16z m-1072 -10 c44 -30 14 -89 -33
-64 -24 13 -41 53 -30 70 9 15 38 12 63 -6z m-140 -124 c11 0 28 -7 37 -16 15
-15 17 -15 31 5 11 15 26 21 53 21 45 0 56 -11 65 -63 6 -31 3 -41 -18 -62
-32 -32 -41 -32 -77 7 -22 24 -29 28 -29 15 0 -9 -8 -25 -19 -36 -16 -16 -25
-17 -77 -8 -33 5 -65 14 -71 19 -19 15 -16 57 7 85 11 14 20 31 20 39 0 19 23
23 41 8 8 -8 25 -14 37 -14z m812 -23 c-1 -12 -12 -35 -25 -52 l-25 -30 0 47
c0 34 5 50 17 57 23 12 33 5 33 -22z m190 1 c13 -25 13 -31 0 -55 -12 -22 -24
-29 -54 -31 -45 -4 -65 16 -66 65 0 38 21 54 70 50 26 -1 38 -9 50 -29z m430
2 c0 -24 -26 -38 -42 -22 -16 16 -2 42 22 42 13 0 20 -7 20 -20z m535 -5 c14
-13 25 -36 25 -50 0 -22 -4 -25 -34 -25 -63 0 -112 64 -68 89 28 17 51 13 77
-14z m-1497 3 c31 -31 -8 -118 -52 -118 -21 0 -36 18 -49 61 -7 23 18 57 46
62 39 8 43 7 55 -5z m4069 -30 c-3 -7 -5 -2 -5 12 0 14 2 19 5 13 2 -7 2 -19
0 -25z m308 6 c43 5 55 3 69 -13 10 -11 16 -31 14 -48 -3 -28 -3 -28 -84 -31
-84 -3 -134 8 -134 30 0 7 9 28 20 46 18 29 23 31 42 21 13 -7 41 -9 73 -5z
m1007 -17 c5 -6 7 -23 6 -36 l-3 -23 -193 -3 c-208 -3 -212 -2 -193 48 10 25
14 26 98 30 145 5 276 -2 285 -16z m-5282 3 c0 -5 -5 -10 -11 -10 -5 0 -7 5
-4 10 3 6 8 10 11 10 2 0 4 -4 4 -10z m644 1 c9 -14 -4 -41 -19 -41 -18 0 -28
17 -21 35 6 17 32 20 40 6z m4014 -12 c24 -9 26 -16 12 -39 -6 -10 -32 -16
-84 -18 -71 -4 -75 -3 -91 22 -29 44 -16 54 67 48 40 -2 83 -9 96 -13z m-3408
-249 c0 -5 -10 -10 -22 -10 -19 0 -20 2 -8 10 19 13 30 13 30 0z m-112 -13
c18 0 31 -5 29 -11 -4 -14 -137 -85 -159 -86 -9 0 -40 13 -68 30 -28 16 -61
32 -75 36 -13 3 -30 13 -37 22 -12 14 -8 15 32 10 25 -3 68 -2 95 2 28 5 73 6
100 3 28 -3 65 -6 83 -6z m-725 -34 c-2 -16 -13 -54 -26 -83 l-24 -54 -7 63
c-6 49 -4 68 8 86 22 33 52 26 49 -12z m-859 -25 c8 -13 7 -21 -2 -30 -14 -14
-26 -4 -37 30 -6 19 -4 23 10 20 10 -1 23 -11 29 -20z m1242 -63 c14 -11 15
-14 4 -15 -26 0 -60 12 -60 21 0 14 34 10 56 -6z m544 -5 c0 -11 -27 -20 -61
-20 -39 0 -37 17 4 28 33 9 57 6 57 -8z m-474 -25 c18 -9 23 -15 12 -15 -24 0
-48 11 -48 21 0 12 3 12 36 -6z m2527 -2112 c-7 -2 -21 -2 -30 0 -10 3 -4 5
12 5 17 0 24 -2 18 -5z m232 -133 c4 -6 -6 -10 -21 -10 -15 0 -38 -10 -51 -22
l-24 -22 9 24 c11 31 73 52 87 30z m80 -30 c4 -6 -7 -10 -24 -10 -17 0 -31 5
-31 10 0 6 11 10 24 10 14 0 28 -4 31 -10z m105 -80 c0 -5 -2 -10 -4 -10 -3 0
-8 5 -11 10 -3 6 -1 10 4 10 6 0 11 -4 11 -10z m2940 -14 c0 -3 -4 -8 -10 -11
-5 -3 -10 -1 -10 4 0 6 5 11 10 11 6 0 10 -2 10 -4z m-3800 -65 c0 -22 -29
-36 -44 -21 -7 7 -4 15 10 25 26 19 34 19 34 -4z m-75 -1 c-3 -5 -12 -10 -18
-10 -7 0 -6 4 3 10 19 12 23 12 15 0z m1535 -70 c0 -5 -4 -10 -9 -10 -6 0 -13
5 -16 10 -3 6 1 10 9 10 9 0 16 -4 16 -10z m-1427 -17 c-7 -2 -19 -2 -25 0 -7
3 -2 5 12 5 14 0 19 -2 13 -5z m-73 -25 c0 -19 -2 -20 -10 -8 -13 19 -13 30 0
30 6 0 10 -10 10 -22z m850 -8 c0 -5 -4 -10 -10 -10 -5 0 -10 5 -10 10 0 6 5
10 10 10 6 0 10 -4 10 -10z m-5 -100 c3 -5 -4 -6 -15 -3 -11 3 -22 9 -25 13
-3 5 4 6 15 3 11 -3 22 -9 25 -13z m45 -30 c0 -5 -2 -10 -4 -10 -3 0 -8 5 -11
10 -3 6 -1 10 4 10 6 0 11 -4 11 -10z m-683 -46 c-3 -3 -12 -4 -19 -1 -8 3 -5
6 6 6 11 1 17 -2 13 -5z m-2471 -91 c-10 -10 -19 5 -10 18 6 11 8 11 12 0 2
-7 1 -15 -2 -18z m484 -33 c0 -5 -4 -10 -10 -10 -5 0 -10 5 -10 10 0 6 5 10
10 10 6 0 10 -4 10 -10z m67 -122 c-3 -7 -5 -2 -5 12 0 14 2 19 5 13 2 -7 2
-19 0 -25z m154 9 c-10 -9 -11 -8 -5 6 3 10 9 15 12 12 3 -3 0 -11 -7 -18z
m2442 -193 c-6 -17 -23 -9 -23 11 0 8 6 12 14 9 8 -3 12 -12 9 -20z m-3770
-19 c-3 -9 -8 -14 -10 -11 -3 3 -2 9 2 15 9 16 15 13 8 -4z m4098 -3 c-7 -2
-18 1 -23 6 -8 8 -4 9 13 5 13 -4 18 -8 10 -11z m-176 -2 c3 -5 2 -10 -4 -10
-5 0 -13 5 -16 10 -3 6 -2 10 4 10 5 0 13 -4 16 -10z m132 -6 c-3 -3 -12 -4
-19 -1 -8 3 -5 6 6 6 11 1 17 -2 13 -5z m2903 -24 c6 -11 8 -20 6 -20 -3 0
-10 9 -16 20 -6 11 -8 20 -6 20 3 0 10 -9 16 -20z m-4040 -20 c0 -5 -4 -10 -9
-10 -6 0 -13 5 -16 10 -3 6 1 10 9 10 9 0 16 -4 16 -10z m-2861 -54 c-9 -8
-10 -7 -5 7 3 10 7 24 7 30 1 7 3 4 6 -7 3 -10 -1 -23 -8 -30z m5521 -29 c0
-6 -11 4 -25 23 -14 19 -25 36 -25 39 1 11 50 -50 50 -62z m-1740 43 c0 -5 -4
-10 -9 -10 -6 0 -13 5 -16 10 -3 6 1 10 9 10 9 0 16 -4 16 -10z m-812 -37
c-10 -2 -26 -2 -35 0 -10 3 -2 5 17 5 19 0 27 -2 18 -5z m2792 -24 c0 -6 -4
-7 -10 -4 -5 3 -10 11 -10 16 0 6 5 7 10 4 6 -3 10 -11 10 -16z m1121 4 c13
-16 12 -17 -3 -4 -10 7 -18 15 -18 17 0 8 8 3 21 -13z m-6076 -13 c-29 -12
-98 -12 -90 0 3 6 30 10 58 9 38 0 47 -3 32 -9z m2300 -10 c3 -5 -1 -10 -10
-10 -9 0 -13 5 -10 10 3 6 8 10 10 10 2 0 7 -4 10 -10z m745 -10 c0 -5 -2 -10
-4 -10 -3 0 -8 5 -11 10 -3 6 -1 10 4 10 6 0 11 -4 11 -10z m128 3 c-10 -2
-26 -2 -35 0 -10 3 -2 5 17 5 19 0 27 -2 18 -5z m-988 -33 c0 -5 -7 -10 -15
-10 -8 0 -15 5 -15 10 0 6 7 10 15 10 8 0 15 -4 15 -10z m2170 -10 c8 -16 8
-18 -4 -14 -17 6 -30 34 -16 34 5 0 14 -9 20 -20z m-1982 -8 c2 -7 -2 -10 -12
-6 -9 3 -16 11 -16 16 0 13 23 5 28 -10z m792 -12 c0 -5 -4 -10 -10 -10 -5 0
-10 5 -10 10 0 6 5 10 10 10 6 0 10 -4 10 -10z m1984 -15 c16 -12 17 -15 4
-15 -8 0 -21 7 -28 15 -16 19 -1 19 24 0z m-1320 -21 c4 -10 1 -14 -6 -12 -15
5 -23 28 -10 28 5 0 13 -7 16 -16z m-3937 -16 c-3 -8 -6 -5 -6 6 -1 11 2 17 5
13 3 -3 4 -12 1 -19z m3293 -43 c0 -8 -2 -15 -4 -15 -2 0 -6 7 -10 15 -3 8 -1
15 4 15 6 0 10 -7 10 -15z m429 -41 c-16 -17 -26 -21 -35 -13 -7 5 -25 7 -41
3 -15 -4 -24 -3 -20 2 4 4 -3 14 -15 21 -18 9 -19 12 -6 13 9 0 20 -4 23 -10
3 -5 26 -10 50 -10 36 0 45 4 51 23 4 13 9 17 12 9 2 -7 -6 -24 -19 -38z
m2011 -6 c0 -19 -2 -20 -10 -8 -13 19 -13 30 0 30 6 0 10 -10 10 -22z m-1955
-18 c-5 -8 -11 -8 -17 -2 -6 6 -7 16 -3 22 5 8 11 8 17 2 6 -6 7 -16 3 -22z
m-205 -32 c0 -12 -33 -9 -52 6 -32 24 -20 37 17 19 19 -9 35 -20 35 -25z m100
22 c0 -5 -12 -10 -27 -9 l-28 1 25 8 c14 4 26 8 28 9 1 1 2 -3 2 -9z m-356
-45 c-11 -8 -32 -14 -49 -14 l-30 1 32 11 c18 7 38 18 45 25 9 9 14 9 16 2 2
-6 -4 -18 -14 -25z m-2014 5 c0 -5 -4 -10 -10 -10 -5 0 -10 5 -10 10 0 6 5 10
10 10 6 0 10 -4 10 -10z m3367 -42 c-3 -8 -6 -5 -6 6 -1 11 2 17 5 13 3 -3 4
-12 1 -19z m-3357 -8 c0 -5 -7 -10 -16 -10 -8 0 -12 5 -9 10 3 6 10 10 16 10
5 0 9 -4 9 -10z m4550 -16 c0 -2 -9 0 -20 6 -11 6 -20 13 -20 16 0 2 9 0 20
-6 11 -6 20 -13 20 -16z m-1225 -14 c4 -6 10 -8 13 -6 4 2 7 -13 7 -33 0 -34
-2 -37 -17 -28 -16 11 -38 49 -38 67 0 13 27 13 35 0z m-171 -35 c-3 -6 0 -24
6 -40 6 -15 8 -30 5 -33 -5 -5 -26 40 -40 86 -6 21 -5 22 13 11 11 -7 18 -18
16 -24z m-3114 5 c9 -17 8 -20 -9 -20 -22 0 -35 15 -26 30 10 16 23 12 35 -10z
m-325 -25 c-16 -13 -48 -37 -70 -52 -22 -16 -45 -35 -52 -43 -6 -8 -15 -11
-20 -7 -8 9 12 27 101 87 66 45 86 52 41 15z m3030 5 c3 -5 2 -10 -4 -10 -5 0
-13 5 -16 10 -3 6 -2 10 4 10 5 0 13 -4 16 -10z m661 -45 c-3 -8 0 -14 7 -12
6 1 13 -8 15 -20 2 -12 10 -27 18 -33 16 -14 19 -46 5 -55 -10 -5 -51 41 -51
57 0 6 -9 23 -20 38 -19 27 -19 29 -3 33 32 8 35 7 29 -8z m-3293 -24 c10 -17
13 -32 8 -35 -10 -7 -36 15 -51 45 -18 33 23 23 43 -10z m3041 -50 c-6 -7 -64
41 -64 53 0 7 15 -1 34 -18 18 -17 32 -33 30 -35z m154 -41 c7 -11 9 -20 4
-20 -10 0 -32 22 -32 32 0 15 15 8 28 -12z m-3138 0 c0 -5 -7 -10 -15 -10 -8
0 -15 5 -15 10 0 6 7 10 15 10 8 0 15 -4 15 -10z m-4440 -35 c0 -8 -7 -15 -15
-15 -9 0 -20 -10 -25 -22 -13 -33 -39 -63 -46 -55 -4 4 -1 13 6 22 7 9 8 15 2
15 -19 0 12 50 38 59 36 13 40 13 40 -4z m9160 -38 c0 -5 -7 -4 -15 3 -8 7
-15 20 -15 29 1 13 3 13 15 -3 8 -11 15 -24 15 -29z m-4667 16 c-7 -2 -19 -2
-25 0 -7 3 -2 5 12 5 14 0 19 -2 13 -5z m2957 -2 c0 -5 -9 -7 -20 -4 -11 3
-20 7 -20 9 0 2 9 4 20 4 11 0 20 -4 20 -9z m-6774 -48 c-18 -33 -21 -26 -6
13 6 15 13 24 16 21 3 -3 -1 -18 -10 -34z m7495 1 c12 -14 11 -16 -5 -13 -11
2 -21 10 -24 17 -5 17 13 15 29 -4z m-8291 -24 c-6 -12 -14 -20 -17 -17 -2 3
1 14 8 26 17 26 24 19 9 -9z m1200 20 c0 -5 -5 -10 -11 -10 -5 0 -7 5 -4 10 3
6 8 10 11 10 2 0 4 -4 4 -10z m-1230 -28 c0 -14 -24 -32 -43 -32 -17 0 -17 2
4 20 26 21 39 25 39 12z m8255 -27 c-40 -34 -55 -39 -62 -18 -2 6 12 17 31 24
20 7 36 17 36 21 0 4 8 8 18 8 12 -1 6 -11 -23 -35z m-5790 15 c-3 -5 -14 -10
-23 -10 -15 0 -15 2 -2 10 20 13 33 13 25 0z m1245 0 c0 -5 -5 -10 -11 -10 -5
0 -7 5 -4 10 3 6 8 10 11 10 2 0 4 -4 4 -10z m-1157 -7 c-13 -2 -33 -2 -45 0
-13 2 -3 4 22 4 25 0 35 -2 23 -4z m5331 -29 c23 -9 20 -23 -4 -17 -11 3 -20
9 -20 14 0 11 3 11 24 3z m-3634 -12 c0 -8 -43 -32 -55 -32 -3 0 -5 6 -5 14 0
8 12 17 28 19 15 2 28 5 30 6 1 0 2 -3 2 -7z m527 -8 c-3 -3 -12 -4 -19 -1 -8
3 -5 6 6 6 11 1 17 -2 13 -5z m3055 -15 c-13 -11 -28 -19 -35 -16 -7 2 2 11
18 20 40 22 43 21 17 -4z m228 11 c0 -5 -4 -10 -10 -10 -5 0 -10 5 -10 10 0 6
5 10 10 10 6 0 10 -4 10 -10z m-6226 -51 c-24 -27 -29 -16 -8 16 10 16 20 23
22 16 2 -7 -4 -21 -14 -32z m7018 9 c-9 -9 -12 -7 -12 12 0 19 3 21 12 12 9
-9 9 -15 0 -24z m-517 0 c7 -8 5 -9 -8 -5 -12 5 -20 0 -26 -15 l-8 -21 -16 23
c-9 13 -14 27 -10 32 6 11 54 1 68 -14z m-1580 -28 c3 -5 1 -10 -4 -10 -6 0
-11 5 -11 10 0 6 2 10 4 10 3 0 8 -4 11 -10z m1375 -11 c0 -6 -4 -7 -10 -4 -5
3 -10 11 -10 16 0 6 5 7 10 4 6 -3 10 -11 10 -16z"/>
<path d="M2391 10096 c-1 -42 2 -57 9 -50 8 8 8 27 2 60 l-10 49 -1 -59z"/>
<path d="M3508 10053 c-7 -32 3 -51 33 -63 59 -25 105 24 61 63 -25 23 -88 23
-94 0z"/>
<path d="M3188 9979 c-10 -6 -18 -17 -18 -24 0 -20 39 -19 47 1 8 22 -8 35
-29 23z"/>
<path d="M2823 9943 c-7 -3 -13 -13 -13 -23 0 -10 6 -20 13 -23 15 -5 47 10
47 23 0 13 -32 28 -47 23z"/>
<path d="M2451 9931 c-12 -8 -12 -12 -2 -25 15 -18 21 -19 40 -7 12 8 12 12
-2 25 -18 19 -18 18 -36 7z"/>
<path d="M3877 9926 c-6 -15 6 -29 36 -39 24 -9 33 18 14 38 -19 19 -43 19
-50 1z"/>
<path d="M3717 9873 c-4 -3 -7 -15 -7 -25 0 -12 7 -18 24 -18 24 0 41 23 30
41 -6 10 -38 12 -47 2z"/>
<path d="M2120 9844 c0 -8 5 -12 10 -9 6 4 8 11 5 16 -9 14 -15 11 -15 -7z"/>
<path d="M3368 9819 c-29 -16 -22 -41 10 -37 19 2 27 9 27 22 0 23 -14 29 -37
15z"/>
<path d="M3005 9754 c-15 -15 -15 -19 -1 -32 8 -8 22 -12 30 -9 23 9 32 37 15
48 -20 12 -25 11 -44 -7z"/>
<path d="M2633 9725 c-7 -19 13 -36 37 -32 8 1 15 11 15 22 0 26 -42 34 -52
10z"/>
<path d="M2276 9705 c-6 -17 17 -31 34 -20 5 3 10 13 10 21 0 19 -36 18 -44
-1z"/>
<path d="M3670 9690 c26 -48 -4 -102 -81 -149 -31 -19 -42 -17 -129 28 -8 5
-16 24 -18 45 -4 45 -16 46 -28 4 -14 -49 -49 -50 -68 -4 -8 20 -17 36 -20 36
-3 0 -5 -20 -4 -44 1 -47 -26 -93 -67 -115 -11 -6 -27 -16 -37 -23 -13 -9 -26
-7 -66 12 -48 23 -72 52 -72 85 0 8 -4 15 -10 15 -5 0 -10 -11 -10 -25 0 -47
-61 -44 -68 4 -5 35 -19 24 -25 -21 -6 -43 -8 -46 -86 -108 -31 -24 -31 -26
-16 -54 8 -15 15 -38 15 -51 0 -23 22 -49 33 -39 3 3 3 29 0 56 -5 44 -3 52
18 72 71 65 106 71 167 26 37 -27 42 -35 42 -71 0 -33 3 -40 17 -37 13 2 18
15 21 48 4 45 16 70 28 57 4 -4 12 -28 19 -54 11 -45 14 -48 54 -56 22 -4 41
-12 41 -16 0 -15 52 -33 64 -21 12 12 -8 30 -35 30 -9 0 -31 13 -48 29 -23 21
-31 38 -31 63 0 18 4 38 8 43 17 25 92 75 111 75 11 0 38 -17 61 -38 30 -30
40 -47 40 -70 0 -43 26 -42 35 1 4 17 12 41 17 51 10 19 11 19 24 1 8 -10 14
-29 14 -42 0 -22 27 -44 63 -50 23 -4 22 10 -3 32 -33 30 -26 78 18 120 50 47
75 53 128 27 43 -21 44 -23 44 -72 0 -73 31 -63 44 15 4 22 9 47 12 56 3 12
-8 24 -33 40 -50 29 -63 47 -63 82 0 25 -2 28 -15 17 -8 -7 -15 -23 -15 -36 0
-38 -43 -32 -61 8 -8 17 -20 34 -27 36 -11 4 -12 0 -2 -18z"/>
<path d="M2350 9540 c-1 -3 -4 -18 -6 -35 -3 -16 -9 -34 -15 -39 -15 -16 -10
-26 13 -26 11 0 36 -11 55 -26 26 -20 33 -32 33 -59 0 -43 17 -55 25 -18 4 15
8 37 10 48 4 20 -20 55 -39 55 -23 1 -58 38 -66 71 -4 19 -9 32 -10 29z"/>
<path d="M2610 9515 c0 -32 -24 -75 -42 -75 -5 0 -23 -9 -38 -20 -24 -17 -27
-24 -19 -48 4 -15 11 -39 14 -54 8 -43 22 -33 23 17 0 55 13 71 76 101 l49 22
41 -25 c56 -36 76 -60 76 -94 0 -38 18 -47 25 -12 12 54 13 58 19 74 5 12 -2
20 -25 29 -51 21 -89 59 -90 88 l-1 27 -9 -27 c-13 -34 -49 -48 -64 -23 -29
48 -34 51 -35 20z"/>
<path d="M2248 9523 c14 -6 16 -79 2 -88 -5 -3 -10 -14 -10 -23 1 -13 5 -12
22 8 11 14 27 24 34 22 19 -4 17 5 -6 28 -11 11 -20 29 -20 40 0 13 -6 20 -17
19 -11 0 -13 -3 -5 -6z"/>
<path d="M2163 9363 c-37 -7 -47 -29 -37 -81 8 -44 11 -47 39 -47 l30 0 2 68
c0 37 -2 66 -5 66 -4 -1 -17 -4 -29 -6z"/>
<path d="M3875 9340 c-14 -16 -16 -23 -6 -33 15 -15 46 3 46 28 0 26 -19 29
-40 5z"/>
<path d="M3530 9275 c-17 -21 -1 -38 31 -33 16 2 24 10 24 23 0 25 -37 32 -55
10z"/>
<path d="M2990 9241 c0 -15 16 -22 34 -15 25 9 19 24 -9 24 -14 0 -25 -4 -25
-9z"/>
<path d="M3188 9229 c-40 -23 -8 -70 33 -49 23 13 25 46 3 54 -19 7 -15 8 -36
-5z"/>
<path d="M2827 9175 c-23 -22 -10 -47 22 -43 20 2 26 8 26 28 0 30 -26 38 -48
15z"/>
<path d="M2463 9164 c-6 -17 12 -34 39 -34 23 0 32 18 18 35 -16 20 -49 19
-57 -1z"/>
<path d="M3698 9139 c-19 -11 -24 -54 -8 -64 16 -10 49 4 60 25 7 14 6 23 -6
34 -18 19 -23 19 -46 5z"/>
<path d="M2126 9096 c-7 -29 2 -56 18 -56 20 0 36 23 36 52 0 23 -4 28 -24 28
-17 0 -26 -7 -30 -24z"/>
<path d="M3382 9063 c2 -10 10 -18 18 -18 22 0 18 29 -3 33 -14 3 -18 -1 -15
-15z"/>
<path d="M3547 9024 c-10 -10 2 -24 22 -24 9 0 31 -15 49 -33 42 -44 42 -79 0
-119 -60 -56 -72 -61 -118 -47 -50 15 -64 38 -57 95 4 39 3 42 -13 34 -20 -11
-30 -32 -30 -65 0 -40 -28 -38 -48 3 -21 46 -58 60 -42 16 20 -51 4 -98 -46
-133 l-44 -32 6 -57 c8 -67 9 -70 54 -79 l35 -6 -28 32 c-45 54 -32 108 37
150 42 26 82 27 124 1 28 -17 32 -25 32 -61 0 -29 -7 -50 -25 -71 -34 -40 -31
-54 5 -28 40 29 57 56 65 108 8 50 22 54 37 11 10 -30 17 -32 22 -7 10 48 52
99 105 127 20 11 30 10 67 -8 24 -12 52 -34 63 -49 l20 -27 11 33 c14 38 37
42 50 8 16 -43 27 -36 33 21 7 65 4 72 -18 49 -22 -21 -48 -20 -95 4 -34 17
-41 26 -46 60 -8 50 -21 51 -30 3 -6 -35 -18 -52 -36 -53 -3 0 -14 22 -23 49
-14 44 -21 51 -68 72 -29 13 -55 25 -58 27 -3 1 -8 -1 -12 -4z"/>
<path d="M2997 9013 c-12 -12 -7 -51 7 -56 36 -14 72 15 60 48 -6 15 -55 21
-67 8z"/>
<path d="M2647 8983 c-14 -14 -6 -42 14 -48 30 -10 57 18 39 39 -13 16 -42 21
-53 9z"/>
<path d="M2312 8968 c-20 -20 -14 -40 11 -36 14 2 23 11 25 26 4 24 -16 30
-36 10z"/>
<path d="M3185 8960 c-8 -13 20 -24 41 -16 20 8 9 26 -16 26 -10 0 -22 -5 -25
-10z"/>
<path d="M3260 8926 c0 -2 7 -7 16 -10 8 -3 12 -2 9 4 -6 10 -25 14 -25 6z"/>
<path d="M2840 8910 c0 -5 5 -10 10 -10 6 0 10 5 10 10 0 6 -4 10 -10 10 -5 0
-10 -4 -10 -10z"/>
<path d="M2918 8873 c7 -3 16 -2 19 1 4 3 -2 6 -13 5 -11 0 -14 -3 -6 -6z"/>
<path d="M2950 8865 c0 -3 5 -27 12 -53 14 -59 37 -91 64 -92 11 0 39 -9 62
-20 45 -22 59 -50 48 -100 -3 -17 -2 -30 3 -30 20 0 38 39 40 85 1 28 6 52 12
54 5 1 -12 14 -38 28 -59 32 -64 38 -61 85 1 21 -1 38 -5 38 -4 0 -11 0 -16 0
-4 0 -12 -19 -17 -42 -7 -33 -14 -43 -29 -43 -14 0 -22 10 -28 38 -5 20 -18
42 -28 48 -10 5 -19 7 -19 4z"/>
<path d="M2610 8782 c0 -26 -4 -53 -8 -60 -12 -18 -78 -52 -101 -52 -35 0
-123 39 -115 51 3 5 0 17 -5 26 -9 16 -10 16 -11 -4 0 -14 -6 -23 -15 -23 -29
0 -14 -17 26 -29 45 -13 69 -53 69 -112 0 -44 24 -32 28 15 6 66 52 58 52 -10
0 -18 8 -38 21 -50 l21 -19 -7 37 c-11 56 1 90 40 117 37 25 55 25 160 2 28
-6 61 -13 74 -16 31 -6 41 -21 41 -68 0 -34 4 -40 36 -53 20 -8 39 -13 42 -10
3 3 0 6 -6 6 -7 0 -12 6 -12 14 0 8 -5 16 -11 18 -6 2 -12 24 -13 48 -4 43 -5
45 -47 59 -101 32 -130 56 -134 114 -3 53 -2 52 -20 37 -8 -7 -15 -23 -15 -36
0 -13 -9 -28 -20 -34 -15 -8 -21 -6 -30 9 -5 11 -10 28 -10 39 0 11 -7 22 -15
26 -12 4 -15 -4 -15 -42z"/>
<path d="M3320 8572 c0 -13 25 -22 58 -22 23 1 25 2 9 11 -9 5 -22 7 -28 4 -5
-4 -16 -1 -24 5 -9 7 -15 8 -15 2z"/>
<path d="M3515 8540 c-9 -15 3 -30 25 -30 18 0 34 23 23 34 -10 10 -41 7 -48
-4z"/>
<path d="M2985 8500 c3 -5 18 -10 33 -9 24 0 25 1 7 9 -28 12 -47 12 -40 0z"/>
<path d="M3185 8486 c-20 -15 -15 -46 8 -46 20 0 40 27 33 45 -7 19 -17 19
-41 1z"/>
<path d="M2831 8441 c-21 -14 -5 -43 21 -39 15 2 23 10 23 23 0 22 -22 30 -44
16z"/>
<path d="M2484 8425 c-4 -10 -1 -21 7 -26 20 -12 34 -5 34 17 0 24 -33 31 -41
9z"/>
<path d="M3679 8399 c-22 -22 -21 -37 4 -53 21 -14 61 22 52 46 -10 26 -34 29
-56 7z"/>
<path d="M3352 8348 c-15 -15 -16 -45 -2 -53 6 -3 19 -3 30 0 24 8 27 50 4 59
-20 8 -18 8 -32 -6z"/>
<path d="M2993 8264 c-3 -8 -1 -20 5 -26 16 -16 47 -5 50 20 3 18 -1 22 -23
22 -14 0 -28 -7 -32 -16z"/>
<path d="M3593 8253 c9 -9 20 -13 24 -9 4 4 1 11 -7 16 -25 16 -35 11 -17 -7z"/>
<path d="M2656 8247 c-23 -17 -11 -47 20 -47 29 0 41 24 24 45 -15 18 -21 19
-44 2z"/>
<path d="M3634 8218 c3 -13 8 -44 11 -70 6 -43 8 -46 28 -38 12 4 20 14 18 22
-2 7 -8 33 -15 58 -7 29 -17 46 -29 48 -14 3 -17 -1 -13 -20z"/>
<path d="M2342 8214 c-12 -8 -22 -19 -22 -25 0 -15 36 -10 50 6 20 24 -1 38
-28 19z"/>
<path d="M3407 8193 c-3 -5 -8 -23 -12 -40 -3 -18 -13 -33 -20 -33 -15 0 -26
-25 -19 -44 8 -21 40 -14 61 14 15 18 18 36 15 68 -4 39 -14 53 -25 35z"/>
<path d="M3535 8080 c-4 -6 -11 -8 -16 -5 -5 4 -9 -2 -9 -13 0 -10 -8 -27 -19
-36 -10 -9 -21 -32 -24 -52 -7 -42 -40 -90 -79 -114 -28 -17 -29 -18 -7 -23
31 -8 128 73 136 114 8 40 21 45 33 14 16 -42 46 -29 42 18 -2 20 2 46 9 58 6
12 7 25 2 29 -15 13 -62 20 -68 10z"/>
<path d="M3494 7825 c-8 -21 4 -35 31 -35 24 0 35 16 28 38 -6 17 -52 15 -59
-3z"/>
<path d="M2946 7813 c-3 -3 -3 -10 0 -14 7 -12 34 -11 34 0 0 11 -26 22 -34
14z"/>
<path d="M2729 7783 c-13 -15 -12 -15 9 -4 23 12 28 21 13 21 -5 0 -15 -7 -22
-17z"/>
<path d="M2822 7717 c-17 -21 2 -41 32 -33 35 9 37 46 2 46 -13 0 -28 -6 -34
-13z"/>
<path d="M2498 7713 c-22 -5 -24 -39 -2 -47 21 -8 34 1 34 24 0 22 -8 28 -32
23z"/>
<path d="M3352 7638 c-15 -15 -16 -45 -2 -53 14 -9 50 13 50 30 0 21 -34 37
-48 23z"/>
<path d="M4921 9876 c-26 -28 -26 -42 -1 -56 17 -9 23 -6 40 22 11 18 19 37
17 42 -6 18 -36 14 -56 -8z"/>
<path d="M4578 9836 c-22 -17 -23 -42 -2 -50 22 -9 46 13 42 37 -4 26 -18 30
-40 13z"/>
<path d="M4718 9305 c-28 -26 -28 -49 -1 -59 39 -15 87 40 62 70 -16 20 -31
17 -61 -11z"/>
<path d="M4960 9261 c0 -25 6 -27 13 -6 4 8 2 17 -3 20 -6 4 -10 -3 -10 -14z"/>
<path d="M4886 9151 c-19 -21 -13 -47 15 -62 20 -10 23 -5 43 59 6 19 4 22
-17 22 -13 0 -31 -8 -41 -19z"/>
<path d="M4548 9101 c-23 -22 -23 -37 -1 -45 23 -9 47 17 38 43 -8 25 -14 26
-37 2z"/>
<path d="M4733 9043 c9 -2 23 -2 30 0 6 3 -1 5 -18 5 -16 0 -22 -2 -12 -5z"/>
<path d="M4778 9013 c7 -3 16 -2 19 1 4 3 -2 6 -13 5 -11 0 -14 -3 -6 -6z"/>
<path d="M5851 8656 c-9 -10 -8 -16 3 -26 19 -15 36 -5 36 21 0 22 -22 25 -39
5z"/>
<path d="M5412 8533 c16 -37 15 -36 27 -29 14 9 -8 56 -25 56 -11 0 -11 -5 -2
-27z"/>
<path d="M5340 8520 c0 -16 23 -60 31 -60 4 0 24 -15 43 -34 20 -18 38 -31 41
-28 3 3 5 -1 5 -9 0 -8 9 -20 20 -27 17 -10 20 -10 20 3 0 8 -9 23 -20 32 -11
10 -20 21 -20 26 0 5 -11 18 -26 29 -14 11 -23 22 -20 25 2 3 -5 14 -17 26
-23 23 -57 33 -57 17z"/>
<path d="M5405 8340 c3 -5 8 -10 11 -10 2 0 4 5 4 10 0 6 -5 10 -11 10 -5 0
-7 -4 -4 -10z"/>
<path d="M5710 8261 c0 -5 13 -14 30 -19 37 -14 52 4 15 18 -33 12 -45 13 -45
1z"/>
<path d="M5602 8248 c-5 -7 -13 -38 -17 -69 -6 -49 -10 -56 -26 -52 -23 6 -25
-10 -4 -27 8 -7 15 -9 15 -6 0 4 6 1 14 -6 13 -14 26 -58 32 -108 17 -158 36
-273 49 -310 17 -44 17 -120 0 -280 -4 -42 -3 -41 11 15 20 75 14 228 -15 405
-42 263 -53 352 -46 401 7 51 5 58 -13 37z"/>
<path d="M5637 8243 c-11 -11 -8 -23 6 -23 8 0 14 7 14 15 0 16 -9 19 -20 8z"/>
<path d="M5710 8181 c0 -6 12 -18 27 -28 15 -10 45 -37 68 -60 46 -48 59 -52
75 -23 6 11 7 19 3 18 -15 -5 -56 40 -50 55 4 10 -6 18 -31 25 -64 19 -92 23
-92 13z"/>
<path d="M5514 8151 c1 -17 4 -31 9 -31 10 0 9 32 -2 48 -5 9 -8 3 -7 -17z"/>
<path d="M5790 7961 c0 -5 5 -13 10 -16 6 -3 10 -2 10 4 0 5 -4 13 -10 16 -5
3 -10 2 -10 -4z"/>
<path d="M5820 7926 c0 -15 18 -31 26 -23 7 7 -7 37 -17 37 -5 0 -9 -6 -9 -14z"/>
<path d="M5696 7832 c-8 -13 18 -57 37 -60 12 -3 17 3 17 20 0 36 -39 65 -54
40z"/>
<path d="M5881 7584 c0 -11 3 -14 6 -6 3 7 2 16 -1 19 -3 4 -6 -2 -5 -13z"/>
<path d="M5652 7310 c0 -19 2 -27 5 -17 2 9 2 25 0 35 -3 9 -5 1 -5 -18z"/>
<path d="M5717 7314 c-14 -14 -6 -24 19 -24 16 0 24 5 22 13 -5 14 -31 21 -41
11z"/>
<path d="M5712 7268 c3 -7 13 -15 22 -16 12 -3 17 1 14 10 -3 7 -13 15 -22 16
-12 3 -17 -1 -14 -10z"/>
<path d="M1552 9978 c-32 -66 -17 -108 38 -108 31 0 40 15 40 65 0 50 -9 65
-39 65 -19 0 -31 -7 -39 -22z"/>
<path d="M1537 9590 c-16 -27 -16 -32 -3 -59 20 -39 42 -45 66 -19 27 29 32
51 21 82 -15 38 -61 36 -84 -4z"/>
<path d="M7022 9902 c-2 -8 2 -29 11 -48 18 -36 50 -50 92 -40 21 5 25 12 25
41 0 28 -5 37 -30 50 -35 18 -90 16 -98 -3z"/>
<path d="M7570 9690 c0 -5 7 -10 15 -10 8 0 15 5 15 10 0 6 -7 10 -15 10 -8 0
-15 -4 -15 -10z"/>
<path d="M6835 9370 c-12 -19 24 -60 50 -60 19 0 25 5 25 23 0 13 -5 28 -12
35 -15 15 -55 16 -63 2z"/>
<path d="M7185 9340 c-8 -26 3 -60 20 -60 7 0 20 -3 28 -6 10 -3 20 3 27 15 9
18 7 25 -14 46 -30 30 -52 32 -61 5z"/>
<path d="M7504 9346 c-13 -33 0 -51 39 -54 33 -3 37 -1 37 20 0 13 -5 29 -12
36 -17 17 -57 15 -64 -2z"/>
<path d="M7587 9273 c-11 -11 -8 -53 4 -53 11 0 59 46 59 56 0 7 -56 5 -63 -3z"/>
<path d="M6915 9240 c-3 -5 -1 -10 4 -10 6 0 11 5 11 10 0 6 -2 10 -4 10 -3 0
-8 -4 -11 -10z"/>
<path d="M6998 9175 c-23 -50 51 -102 90 -63 19 19 14 55 -10 72 -34 24 -67
20 -80 -9z"/>
<path d="M7550 9190 c0 -5 4 -10 9 -10 6 0 13 5 16 10 3 6 -1 10 -9 10 -9 0
-16 -4 -16 -10z"/>
<path d="M7331 9161 c-25 -47 -4 -85 45 -79 64 7 62 90 -3 96 -23 2 -34 -2
-42 -17z"/>
<path d="M7486 9098 c-16 -61 0 -73 47 -34 34 28 28 56 -13 56 -20 0 -29 -6
-34 -22z"/>
<path d="M6813 8645 c-7 -20 24 -55 48 -55 24 0 32 16 25 46 -5 19 -13 24 -37
24 -17 0 -32 -6 -36 -15z"/>
<path d="M7167 8642 c-33 -4 -43 -22 -27 -51 16 -32 80 -25 80 8 -1 28 -23 46
-53 43z"/>
<path d="M7480 8629 c0 -5 5 -7 10 -4 6 3 10 8 10 11 0 2 -4 4 -10 4 -5 0 -10
-5 -10 -11z"/>
<path d="M6968 8489 c-22 -13 -23 -62 -2 -83 16 -16 71 -21 90 -8 53 36 -33
125 -88 91z"/>
<path d="M7166 8464 c-6 -16 2 -18 22 -5 11 7 11 9 -1 14 -9 3 -18 -1 -21 -9z"/>
<path d="M7286 8458 c-20 -28 -20 -48 -2 -73 12 -17 17 -17 46 -5 41 17 57 56
34 81 -23 26 -59 24 -78 -3z"/>
<path d="M7352 8300 c-14 -23 -16 -40 -3 -40 9 0 25 49 19 56 -2 2 -9 -6 -16
-16z"/>
<path d="M6796 7955 c-17 -13 -18 -18 -6 -40 10 -19 21 -25 39 -23 33 4 42 45
15 65 -22 16 -24 16 -48 -2z"/>
<path d="M6619 7817 c-22 -49 38 -118 76 -87 20 16 19 74 -1 94 -23 24 -63 20
-75 -7z"/>
<path d="M6497 7815 c-19 -14 -40 -72 -31 -86 3 -5 18 -9 33 -9 15 0 37 -9 49
-20 12 -11 28 -20 37 -20 18 0 21 -60 4 -77 -7 -7 -1 -18 22 -37 26 -22 37
-26 63 -20 17 4 60 8 96 9 51 1 64 4 62 16 -2 8 -10 20 -19 26 -14 10 -20 10
-34 -3 -19 -17 -39 -12 -39 10 0 7 9 21 20 31 11 10 20 24 20 31 0 7 12 14 28
16 30 5 21 10 -45 25 -48 11 -54 8 -78 -51 -13 -32 -18 -36 -31 -25 -8 7 -12
18 -10 26 4 8 -14 35 -42 63 -26 26 -56 62 -67 78 -18 26 -23 28 -38 17z"/>
<path d="M6932 7778 c-18 -18 -14 -63 6 -81 38 -34 102 -11 102 36 0 45 -76
77 -108 45z"/>
<path d="M408 9513 c7 -3 16 -2 19 1 4 3 -2 6 -13 5 -11 0 -14 -3 -6 -6z"/>
<path d="M762 9648 c-16 -16 -15 -60 2 -83 12 -16 18 -17 39 -8 32 15 43 48
26 79 -13 26 -47 32 -67 12z"/>
<path d="M6876 9722 c-6 -9 29 -42 44 -42 18 0 11 29 -9 40 -24 12 -28 12 -35
2z"/>
<path d="M1185 9590 c-3 -5 -3 -15 1 -21 6 -11 23 6 24 24 0 10 -18 9 -25 -3z"/>
<path d="M8224 9585 c-4 -8 -12 -15 -20 -15 -8 0 -14 -7 -14 -16 0 -10 7 -14
23 -12 16 2 22 10 23 31 1 30 -4 35 -12 12z"/>
<path d="M6360 9305 c-31 -37 38 -96 76 -65 7 7 14 18 14 24 0 39 -67 69 -90
41z"/>
<path d="M8171 9314 c-15 -34 -10 -38 33 -24 46 15 51 50 8 50 -21 0 -32 -7
-41 -26z"/>
<path d="M6340 8581 c-8 -16 -5 -26 14 -48 21 -24 27 -26 52 -18 37 13 43 47
12 69 -31 22 -65 20 -78 -3z"/>
<path d="M8155 8614 c-19 -19 -12 -29 28 -38 20 -5 27 -3 27 8 0 45 -26 59
-55 30z"/>
<path d="M7865 8081 c-3 -5 2 -11 10 -15 8 -3 17 -1 20 3 3 5 -2 11 -10 15 -8
3 -17 1 -20 -3z"/>
<path d="M902 8088 c-15 -15 -16 -55 0 -64 15 -9 40 25 36 50 -4 24 -20 30
-36 14z"/>
<path d="M521 7233 c-1 -7 -8 -10 -17 -6 -10 4 -20 0 -26 -10 -5 -10 -16 -17
-23 -17 -18 0 -21 -75 -5 -85 22 -14 48 6 55 43 4 20 11 40 17 43 5 4 8 15 5
25 -3 11 -5 14 -6 7z"/>
<path d="M2712 7310 c0 -19 2 -27 5 -17 2 9 2 25 0 35 -3 9 -5 1 -5 -18z"/>
<path d="M2325 7240 c3 -5 10 -10 16 -10 5 0 9 5 9 10 0 6 -7 10 -16 10 -8 0
-12 -4 -9 -10z"/>
<path d="M2878 7238 c-6 -18 3 -98 11 -98 3 0 6 25 6 55 0 52 -7 70 -17 43z"/>
<path d="M2435 7210 c-3 -5 -1 -19 5 -30 6 -11 9 -38 6 -60 -5 -41 7 -53 22
-22 12 23 22 113 11 107 -4 -3 -10 -1 -14 5 -8 13 -22 13 -30 0z"/>
<path d="M2793 7185 c0 -22 2 -30 4 -17 2 12 2 30 0 40 -3 9 -5 -1 -4 -23z"/>
<path d="M2530 7185 c0 -8 4 -15 10 -15 5 0 7 7 4 15 -4 8 -8 15 -10 15 -2 0
-4 -7 -4 -15z"/>
<path d="M2532 7139 c1 -13 8 -23 13 -21 15 3 12 35 -3 40 -9 3 -13 -3 -10
-19z"/>
<path d="M2817 7013 c-16 -15 -6 -34 15 -31 29 4 38 38 10 38 -10 0 -22 -3
-25 -7z"/>
<path d="M2471 6982 c-8 -15 -7 -21 4 -26 22 -8 46 4 43 23 -5 23 -35 25 -47
3z"/>
<path d="M3345 6900 c3 -5 8 -10 11 -10 2 0 4 5 4 10 0 6 -5 10 -11 10 -5 0
-7 -4 -4 -10z"/>
<path d="M3480 6860 c0 -5 9 -10 21 -10 11 0 17 5 14 10 -3 6 -13 10 -21 10
-8 0 -14 -4 -14 -10z"/>
<path d="M6606 7074 c-13 -34 -5 -55 29 -75 19 -11 37 -29 40 -40 7 -21 20
-25 30 -9 13 22 46 10 56 -20 13 -37 33 -40 26 -3 -3 14 1 44 9 66 8 22 14 41
14 43 0 10 -37 2 -54 -11 -11 -8 -29 -13 -40 -9 -49 13 -76 27 -76 39 0 7 -6
18 -14 24 -11 9 -15 8 -20 -5z"/>
<path d="M7032 6828 c-21 -21 -14 -58 13 -68 31 -12 52 -4 60 21 14 43 -41 79
-73 47z"/>
<path d="M7360 6792 c0 -11 7 -25 15 -32 21 -18 47 -5 43 22 -4 31 -58 40 -58
10z"/>
<path d="M6710 6775 c-6 -8 -9 -23 -5 -35 5 -17 9 -18 28 -8 30 15 38 30 25
45 -14 17 -33 16 -48 -2z"/>
<path d="M7190 6645 c-19 -23 -8 -50 23 -53 35 -4 46 21 22 48 -22 24 -29 25
-45 5z"/>
<path d="M6876 6625 c-11 -29 -6 -36 22 -33 19 2 27 9 27 23 0 25 -40 33 -49
10z"/>
<path d="M7440 6520 c0 -5 5 -10 11 -10 5 0 7 5 4 10 -3 6 -8 10 -11 10 -2 0
-4 -4 -4 -10z"/>
<path d="M7150 6461 c0 -43 -4 -53 -31 -75 -36 -31 -87 -34 -130 -9 -26 15
-29 23 -29 66 0 41 -3 48 -16 43 -9 -3 -18 -6 -20 -6 -2 0 -4 -18 -4 -40 0
-26 6 -46 18 -55 49 -44 84 -67 105 -69 12 -1 28 -5 33 -9 6 -3 22 5 35 19 13
14 38 33 54 41 17 9 33 21 37 27 13 20 -22 116 -42 116 -6 0 -10 -22 -10 -49z"/>
<path d="M6838 6429 c-3 -52 7 -73 23 -48 10 16 12 60 3 83 -12 30 -22 16 -26
-35z"/>
<path d="M7034 6116 c-3 -9 -4 -23 0 -31 8 -21 51 -3 51 21 0 24 -43 32 -51
10z"/>
<path d="M7333 6104 c-7 -19 5 -43 30 -58 34 -22 73 28 47 59 -17 20 -69 19
-77 -1z"/>
<path d="M7185 5940 c-3 -6 1 -18 10 -27 15 -14 18 -14 32 0 8 8 12 20 9 26
-9 14 -43 14 -51 1z"/>
<path d="M8112 7204 c-19 -20 -15 -33 13 -40 31 -8 39 -2 31 24 -9 26 -28 33
-44 16z"/>
<path d="M8008 6789 c-10 -5 -20 -26 -24 -45 -8 -45 12 -70 49 -60 31 7 42 59
21 94 -16 25 -21 26 -46 11z"/>
<path d="M2171 6146 c-8 -9 -11 -19 -7 -23 9 -9 29 13 24 27 -2 8 -8 7 -17 -4z"/>
<path d="M850 5750 c0 -5 7 -10 15 -10 8 0 15 5 15 10 0 6 -7 10 -15 10 -8 0
-15 -4 -15 -10z"/>
<path d="M7520 5571 c0 -12 5 -21 10 -21 6 0 10 6 10 14 0 8 -4 18 -10 21 -5
3 -10 -3 -10 -14z"/>
<path d="M7480 5483 c0 -4 11 -18 24 -30 24 -23 24 -23 47 -4 13 11 22 21 19
24 -10 9 -90 19 -90 10z"/>
<path d="M7020 5440 c-20 -12 -1 -45 26 -45 22 0 32 34 12 46 -17 11 -20 11
-38 -1z"/>
<path d="M7331 5424 c-26 -19 -27 -45 -3 -67 26 -23 58 -21 76 5 13 18 14 25
3 42 -20 29 -51 37 -76 20z"/>
<path d="M7502 5248 c-16 -16 -15 -28 4 -49 13 -14 20 -16 40 -7 37 17 26 68
-16 68 -9 0 -21 -5 -28 -12z"/>
<path d="M6991 4966 c10 -9 79 -14 79 -5 0 5 -19 9 -42 9 -23 0 -39 -2 -37 -4z"/>
<path d="M5952 11973 c-6 -12 -12 -28 -12 -37 0 -8 -5 -16 -12 -18 -8 -3 -6
-7 5 -11 21 -8 39 24 35 61 -3 27 -3 27 -16 5z"/>
<path d="M5785 11830 c-16 -11 -32 -30 -35 -42 -4 -17 -14 -24 -35 -26 -28 -3
-55 -35 -55 -65 0 -18 30 -37 60 -37 37 0 64 23 84 72 9 20 20 39 26 43 15 9
13 75 -2 75 -7 0 -26 -9 -43 -20z"/>
<path d="M74 8117 c-22 -25 -25 -54 -9 -71 22 -21 38 -20 60 4 15 16 17 26 9
48 -10 30 -42 40 -60 19z"/>
<path d="M9545 7350 c-9 -15 4 -30 26 -30 22 0 24 11 7 28 -15 15 -25 15 -33
2z"/>
<path d="M9517 7113 c-16 -15 -6 -30 17 -26 16 3 23 10 19 19 -5 15 -25 19
-36 7z"/>
<path d="M9520 7000 c0 -15 5 -20 18 -18 9 2 17 10 17 18 0 8 -8 16 -17 18
-13 2 -18 -3 -18 -18z"/>
<path d="M18 6853 c-26 -7 -23 -50 4 -58 27 -9 63 32 46 52 -11 13 -19 14 -50
6z"/>
<path d="M9584 5809 c-3 -6 -1 -16 5 -22 8 -8 11 -5 11 11 0 24 -5 28 -16 11z"/>
</g>
</svg>
